G04 #@! TF.GenerationSoftware,KiCad,Pcbnew,(5.1.5)-3*
G04 #@! TF.CreationDate,2020-05-01T16:20:29+02:00*
G04 #@! TF.ProjectId,Arduino_Uno_R3_From_Scratch,41726475-696e-46f5-9f55-6e6f5f52335f,rev?*
G04 #@! TF.SameCoordinates,Original*
G04 #@! TF.FileFunction,Copper,L2,Bot*
G04 #@! TF.FilePolarity,Positive*
%FSLAX46Y46*%
G04 Gerber Fmt 4.6, Leading zero omitted, Abs format (unit mm)*
G04 Created by KiCad (PCBNEW (5.1.5)-3) date 2020-05-01 16:20:29*
%MOMM*%
%LPD*%
G04 APERTURE LIST*
%ADD10C,2.000000*%
%ADD11R,1.700000X1.700000*%
%ADD12O,1.700000X1.700000*%
%ADD13C,0.800000*%
%ADD14C,0.350000*%
%ADD15C,0.250000*%
%ADD16C,0.254000*%
G04 APERTURE END LIST*
D10*
X185900000Y-105400000D03*
X181400000Y-105400000D03*
X185900000Y-98900000D03*
X181400000Y-98900000D03*
D11*
X190000000Y-100600000D03*
X195000000Y-95500000D03*
D12*
X192460000Y-95500000D03*
X189920000Y-95500000D03*
X187380000Y-95500000D03*
X184840000Y-95500000D03*
X182300000Y-95500000D03*
D11*
X177800000Y-124800000D03*
D12*
X177800000Y-122260000D03*
X177800000Y-119720000D03*
X177800000Y-117180000D03*
X177800000Y-114640000D03*
X177800000Y-112100000D03*
X220600000Y-95300000D03*
X220600000Y-97840000D03*
X220600000Y-100380000D03*
X220600000Y-102920000D03*
X220600000Y-105460000D03*
D11*
X220600000Y-108000000D03*
X220600000Y-126000000D03*
D12*
X220600000Y-123460000D03*
X220600000Y-120920000D03*
X220600000Y-118380000D03*
X220600000Y-115840000D03*
X220600000Y-113300000D03*
X211900000Y-126000000D03*
X209360000Y-126000000D03*
X206820000Y-126000000D03*
X204280000Y-126000000D03*
X201740000Y-126000000D03*
D11*
X199200000Y-126000000D03*
X182400000Y-126000000D03*
D12*
X184940000Y-126000000D03*
X187480000Y-126000000D03*
X190020000Y-126000000D03*
X192560000Y-126000000D03*
X195100000Y-126000000D03*
X198550000Y-95500000D03*
X201090000Y-95500000D03*
X203630000Y-95500000D03*
X206170000Y-95500000D03*
X208710000Y-95500000D03*
D11*
X211250000Y-95500000D03*
X177800000Y-95600000D03*
D12*
X177800000Y-98140000D03*
X177800000Y-100680000D03*
X177800000Y-103220000D03*
X177800000Y-105760000D03*
X177800000Y-108300000D03*
D13*
X200000000Y-108400000D03*
X200000000Y-109400000D03*
X203800000Y-100400000D03*
X195400000Y-100400000D03*
X195400000Y-101800000D03*
X218200000Y-108000000D03*
X187800000Y-110800000D03*
X209200000Y-101200000D03*
X199000000Y-115200000D03*
X208600000Y-112400000D03*
X194000000Y-116800000D03*
X186000000Y-122200000D03*
X200400000Y-123400000D03*
X197000000Y-123400000D03*
X207600000Y-98600000D03*
X210800000Y-99200000D03*
X195200000Y-124200000D03*
X192400000Y-124200000D03*
X190000000Y-124200000D03*
X188000000Y-105000000D03*
X188000000Y-106000000D03*
X203300000Y-108500000D03*
X203300000Y-107500000D03*
X191824977Y-114200000D03*
X192824990Y-114200000D03*
X190824964Y-114200000D03*
X196800000Y-102000000D03*
X183012660Y-112012660D03*
X185400000Y-112000000D03*
D14*
X181200000Y-122260000D02*
X184940000Y-126000000D01*
X177800000Y-122260000D02*
X181200000Y-122260000D01*
X200400000Y-124660000D02*
X201740000Y-126000000D01*
X200400000Y-123400000D02*
X200400000Y-124660000D01*
X208200000Y-99200000D02*
X207600000Y-98600000D01*
X210800000Y-99200000D02*
X208200000Y-99200000D01*
D15*
X202734315Y-108500000D02*
X200234315Y-106000000D01*
X203300000Y-108500000D02*
X202734315Y-108500000D01*
X199434315Y-106000000D02*
X188000000Y-106000000D01*
X200234315Y-106000000D02*
X199434315Y-106000000D01*
X203300000Y-107500000D02*
X200800000Y-105000000D01*
X200800000Y-105000000D02*
X199800000Y-105000000D01*
X200000000Y-105000000D02*
X199800000Y-105000000D01*
X199800000Y-105000000D02*
X188000000Y-105000000D01*
X208510001Y-125150001D02*
X209360000Y-126000000D01*
X206255999Y-124824999D02*
X208184999Y-124824999D01*
X208184999Y-124824999D02*
X208510001Y-125150001D01*
X205644999Y-126564001D02*
X205644999Y-125435999D01*
X205033999Y-127175001D02*
X205644999Y-126564001D01*
X193735001Y-127175001D02*
X205033999Y-127175001D01*
X205644999Y-125435999D02*
X206255999Y-124824999D01*
X192560000Y-126000000D02*
X193735001Y-127175001D01*
X176950001Y-106609999D02*
X177800000Y-105760000D01*
X176499991Y-112538993D02*
X176499991Y-107060009D01*
X177800000Y-113839002D02*
X176499991Y-112538993D01*
X176499991Y-107060009D02*
X176950001Y-106609999D01*
X177800000Y-114640000D02*
X177800000Y-113839002D01*
X192400000Y-124200000D02*
X191824977Y-123624977D01*
X191824977Y-114765685D02*
X191824977Y-114200000D01*
X177800000Y-114640000D02*
X178965001Y-113474999D01*
X191665661Y-113474999D02*
X191824977Y-113634315D01*
X191824977Y-113634315D02*
X191824977Y-114200000D01*
X178965001Y-113474999D02*
X191665661Y-113474999D01*
X191824977Y-123624977D02*
X191824977Y-114765685D01*
X183990001Y-94650001D02*
X184840000Y-95500000D01*
X183664999Y-94324999D02*
X183990001Y-94650001D01*
X181735999Y-94324999D02*
X183664999Y-94324999D01*
X179650010Y-96410988D02*
X181735999Y-94324999D01*
X179650010Y-103909990D02*
X179650010Y-96410988D01*
X177800000Y-105760000D02*
X179650010Y-103909990D01*
X221775001Y-127110001D02*
X221775001Y-117015001D01*
X221710001Y-127175001D02*
X221775001Y-127110001D01*
X210535001Y-127175001D02*
X221710001Y-127175001D01*
X209360000Y-126000000D02*
X210535001Y-127175001D01*
X219750001Y-98689999D02*
X220600000Y-97840000D01*
X218974989Y-99465011D02*
X219750001Y-98689999D01*
X218974989Y-118493991D02*
X218974989Y-99465011D01*
X220035999Y-119555001D02*
X218974989Y-118493991D01*
X221775001Y-118944001D02*
X221164001Y-119555001D01*
X221164001Y-119555001D02*
X220035999Y-119555001D01*
X221775001Y-117015001D02*
X221775001Y-118944001D01*
X220600000Y-115840000D02*
X221775001Y-117015001D01*
X193000000Y-122000000D02*
X195200000Y-124200000D01*
X206500000Y-120600000D02*
X211900000Y-126000000D01*
X193000000Y-120600000D02*
X206500000Y-120600000D01*
X193000000Y-120600000D02*
X193000000Y-122000000D01*
X176950001Y-109149999D02*
X177800000Y-108300000D01*
X176950001Y-111250001D02*
X176950001Y-109149999D01*
X177800000Y-112100000D02*
X176950001Y-111250001D01*
X178649999Y-112949999D02*
X192140674Y-112949999D01*
X192140674Y-112949999D02*
X192824990Y-113634315D01*
X192824990Y-120424990D02*
X192824990Y-114765685D01*
X177800000Y-112100000D02*
X178649999Y-112949999D01*
X192824990Y-113634315D02*
X192824990Y-114200000D01*
X193000000Y-120600000D02*
X192824990Y-120424990D01*
X192824990Y-114765685D02*
X192824990Y-114200000D01*
X183149999Y-101046411D02*
X183149999Y-96349999D01*
X178975001Y-105221409D02*
X183149999Y-101046411D01*
X183149999Y-96349999D02*
X182300000Y-95500000D01*
X178975001Y-107124999D02*
X178975001Y-105221409D01*
X177800000Y-108300000D02*
X178975001Y-107124999D01*
X221449999Y-96149999D02*
X220600000Y-95300000D01*
X221775001Y-96475001D02*
X221449999Y-96149999D01*
X221775001Y-112124999D02*
X221775001Y-96475001D01*
X220600000Y-113300000D02*
X221775001Y-112124999D01*
X206820000Y-127202081D02*
X206820000Y-126000000D01*
X206397071Y-127625010D02*
X206820000Y-127202081D01*
X190020000Y-126000000D02*
X191645010Y-127625010D01*
X191645010Y-127625010D02*
X206397071Y-127625010D01*
X176049981Y-104970019D02*
X176950001Y-104069999D01*
X176049981Y-115429981D02*
X176049981Y-104970019D01*
X176950001Y-104069999D02*
X177800000Y-103220000D01*
X177800000Y-117180000D02*
X176049981Y-115429981D01*
X177800000Y-117180000D02*
X187844964Y-117180000D01*
X190424965Y-114599999D02*
X190824964Y-114200000D01*
X190000000Y-124200000D02*
X190000000Y-115024964D01*
X187844964Y-117180000D02*
X190824964Y-114200000D01*
X190000000Y-115024964D02*
X190424965Y-114599999D01*
X185680000Y-93800000D02*
X187380000Y-95500000D01*
X180600000Y-93800000D02*
X185680000Y-93800000D01*
X178649999Y-102370001D02*
X178649999Y-102350001D01*
X177800000Y-103220000D02*
X178649999Y-102370001D01*
X179200000Y-95200000D02*
X180600000Y-93800000D01*
X178649999Y-102350001D02*
X179200000Y-101800000D01*
X179200000Y-101800000D02*
X179200000Y-95200000D01*
X219424999Y-115275999D02*
X219424999Y-117204999D01*
X220035999Y-114664999D02*
X219424999Y-115275999D01*
X221164001Y-114664999D02*
X220035999Y-114664999D01*
X222225011Y-115726009D02*
X221164001Y-114664999D01*
X222225011Y-127296401D02*
X222225011Y-115726009D01*
X221896402Y-127625010D02*
X222225011Y-127296401D01*
X208445010Y-127625010D02*
X221896402Y-127625010D01*
X206820000Y-126000000D02*
X208445010Y-127625010D01*
X219424999Y-117204999D02*
X219424999Y-101555001D01*
X220600000Y-118380000D02*
X219424999Y-117204999D01*
X204479999Y-94650001D02*
X203630000Y-95500000D01*
X221164001Y-94124999D02*
X205005001Y-94124999D01*
X222225010Y-95186008D02*
X221164001Y-94124999D01*
X220035999Y-114475001D02*
X221164001Y-114475001D01*
X205005001Y-94124999D02*
X204479999Y-94650001D01*
X219424999Y-113864001D02*
X220035999Y-114475001D01*
X219424999Y-101555001D02*
X219424999Y-113864001D01*
X222225010Y-113413992D02*
X222225010Y-95186008D01*
X221164001Y-114475001D02*
X222225010Y-113413992D01*
X220600000Y-100380000D02*
X219424999Y-101555001D01*
X221164001Y-114664999D02*
X221164001Y-114475001D01*
X185900000Y-98900000D02*
X185900000Y-105400000D01*
X185900000Y-102300000D02*
X185900000Y-103985787D01*
X187600000Y-100600000D02*
X185900000Y-102300000D01*
X185900000Y-103985787D02*
X185900000Y-105400000D01*
X190000000Y-100600000D02*
X187600000Y-100600000D01*
X190000000Y-101700000D02*
X190000000Y-100600000D01*
X190825001Y-102525001D02*
X190000000Y-101700000D01*
X195748001Y-102525001D02*
X190825001Y-102525001D01*
X196273002Y-102000000D02*
X195748001Y-102525001D01*
X196800000Y-102000000D02*
X196273002Y-102000000D01*
X202200000Y-102000000D02*
X203800000Y-100400000D01*
X196800000Y-102000000D02*
X202200000Y-102000000D01*
X188365685Y-110800000D02*
X187800000Y-110800000D01*
X202073002Y-110800000D02*
X188365685Y-110800000D01*
X204873002Y-108000000D02*
X202073002Y-110800000D01*
X218200000Y-108000000D02*
X204873002Y-108000000D01*
X200000000Y-108400000D02*
X186625320Y-108400000D01*
X186625320Y-108400000D02*
X183412659Y-111612661D01*
X183412659Y-111612661D02*
X183012660Y-112012660D01*
X188000000Y-109400000D02*
X200000000Y-109400000D01*
X185400000Y-112000000D02*
X188000000Y-109400000D01*
X195400000Y-101800000D02*
X195400000Y-100400000D01*
D16*
G36*
X217540226Y-108803937D02*
G01*
X217709744Y-108917205D01*
X217898102Y-108995226D01*
X218098061Y-109035000D01*
X218214989Y-109035000D01*
X218214989Y-118456669D01*
X218211313Y-118493991D01*
X218214989Y-118531313D01*
X218214989Y-118531323D01*
X218225986Y-118642976D01*
X218249269Y-118719731D01*
X218269443Y-118786237D01*
X218340015Y-118918267D01*
X218368586Y-118953080D01*
X218434988Y-119033992D01*
X218463991Y-119057795D01*
X219427013Y-120020817D01*
X219328359Y-120153080D01*
X219203175Y-120415901D01*
X219158524Y-120563110D01*
X219279845Y-120793000D01*
X220473000Y-120793000D01*
X220473000Y-120773000D01*
X220727000Y-120773000D01*
X220727000Y-120793000D01*
X220747000Y-120793000D01*
X220747000Y-121047000D01*
X220727000Y-121047000D01*
X220727000Y-121067000D01*
X220473000Y-121067000D01*
X220473000Y-121047000D01*
X219279845Y-121047000D01*
X219158524Y-121276890D01*
X219203175Y-121424099D01*
X219328359Y-121686920D01*
X219502412Y-121920269D01*
X219718645Y-122115178D01*
X219835534Y-122184805D01*
X219653368Y-122306525D01*
X219446525Y-122513368D01*
X219284010Y-122756589D01*
X219172068Y-123026842D01*
X219115000Y-123313740D01*
X219115000Y-123606260D01*
X219172068Y-123893158D01*
X219284010Y-124163411D01*
X219446525Y-124406632D01*
X219578380Y-124538487D01*
X219505820Y-124560498D01*
X219395506Y-124619463D01*
X219298815Y-124698815D01*
X219219463Y-124795506D01*
X219160498Y-124905820D01*
X219124188Y-125025518D01*
X219111928Y-125150000D01*
X219111928Y-126415001D01*
X213331544Y-126415001D01*
X213385000Y-126146260D01*
X213385000Y-125853740D01*
X213327932Y-125566842D01*
X213215990Y-125296589D01*
X213053475Y-125053368D01*
X212846632Y-124846525D01*
X212603411Y-124684010D01*
X212333158Y-124572068D01*
X212046260Y-124515000D01*
X211753740Y-124515000D01*
X211533592Y-124558790D01*
X207063804Y-120089003D01*
X207040001Y-120059999D01*
X206924276Y-119965026D01*
X206792247Y-119894454D01*
X206648986Y-119850997D01*
X206537333Y-119840000D01*
X206537322Y-119840000D01*
X206500000Y-119836324D01*
X206462678Y-119840000D01*
X193584990Y-119840000D01*
X193584990Y-114903711D01*
X193628927Y-114859774D01*
X193742195Y-114690256D01*
X193820216Y-114501898D01*
X193859990Y-114301939D01*
X193859990Y-114098061D01*
X193820216Y-113898102D01*
X193742195Y-113709744D01*
X193628927Y-113540226D01*
X193573977Y-113485276D01*
X193530536Y-113342068D01*
X193507516Y-113299001D01*
X193459964Y-113210038D01*
X193388789Y-113123312D01*
X193364991Y-113094314D01*
X193335994Y-113070517D01*
X192704477Y-112439001D01*
X192680675Y-112409998D01*
X192564950Y-112315025D01*
X192432921Y-112244453D01*
X192289660Y-112200996D01*
X192178007Y-112189999D01*
X192177996Y-112189999D01*
X192140674Y-112186323D01*
X192103352Y-112189999D01*
X186417484Y-112189999D01*
X186435000Y-112101939D01*
X186435000Y-112039801D01*
X187005545Y-111469256D01*
X187140226Y-111603937D01*
X187309744Y-111717205D01*
X187498102Y-111795226D01*
X187698061Y-111835000D01*
X187901939Y-111835000D01*
X188101898Y-111795226D01*
X188290256Y-111717205D01*
X188459774Y-111603937D01*
X188503711Y-111560000D01*
X202035680Y-111560000D01*
X202073002Y-111563676D01*
X202110324Y-111560000D01*
X202110335Y-111560000D01*
X202221988Y-111549003D01*
X202365249Y-111505546D01*
X202497278Y-111434974D01*
X202613003Y-111340001D01*
X202636806Y-111310997D01*
X205187804Y-108760000D01*
X217496289Y-108760000D01*
X217540226Y-108803937D01*
G37*
X217540226Y-108803937D02*
X217709744Y-108917205D01*
X217898102Y-108995226D01*
X218098061Y-109035000D01*
X218214989Y-109035000D01*
X218214989Y-118456669D01*
X218211313Y-118493991D01*
X218214989Y-118531313D01*
X218214989Y-118531323D01*
X218225986Y-118642976D01*
X218249269Y-118719731D01*
X218269443Y-118786237D01*
X218340015Y-118918267D01*
X218368586Y-118953080D01*
X218434988Y-119033992D01*
X218463991Y-119057795D01*
X219427013Y-120020817D01*
X219328359Y-120153080D01*
X219203175Y-120415901D01*
X219158524Y-120563110D01*
X219279845Y-120793000D01*
X220473000Y-120793000D01*
X220473000Y-120773000D01*
X220727000Y-120773000D01*
X220727000Y-120793000D01*
X220747000Y-120793000D01*
X220747000Y-121047000D01*
X220727000Y-121047000D01*
X220727000Y-121067000D01*
X220473000Y-121067000D01*
X220473000Y-121047000D01*
X219279845Y-121047000D01*
X219158524Y-121276890D01*
X219203175Y-121424099D01*
X219328359Y-121686920D01*
X219502412Y-121920269D01*
X219718645Y-122115178D01*
X219835534Y-122184805D01*
X219653368Y-122306525D01*
X219446525Y-122513368D01*
X219284010Y-122756589D01*
X219172068Y-123026842D01*
X219115000Y-123313740D01*
X219115000Y-123606260D01*
X219172068Y-123893158D01*
X219284010Y-124163411D01*
X219446525Y-124406632D01*
X219578380Y-124538487D01*
X219505820Y-124560498D01*
X219395506Y-124619463D01*
X219298815Y-124698815D01*
X219219463Y-124795506D01*
X219160498Y-124905820D01*
X219124188Y-125025518D01*
X219111928Y-125150000D01*
X219111928Y-126415001D01*
X213331544Y-126415001D01*
X213385000Y-126146260D01*
X213385000Y-125853740D01*
X213327932Y-125566842D01*
X213215990Y-125296589D01*
X213053475Y-125053368D01*
X212846632Y-124846525D01*
X212603411Y-124684010D01*
X212333158Y-124572068D01*
X212046260Y-124515000D01*
X211753740Y-124515000D01*
X211533592Y-124558790D01*
X207063804Y-120089003D01*
X207040001Y-120059999D01*
X206924276Y-119965026D01*
X206792247Y-119894454D01*
X206648986Y-119850997D01*
X206537333Y-119840000D01*
X206537322Y-119840000D01*
X206500000Y-119836324D01*
X206462678Y-119840000D01*
X193584990Y-119840000D01*
X193584990Y-114903711D01*
X193628927Y-114859774D01*
X193742195Y-114690256D01*
X193820216Y-114501898D01*
X193859990Y-114301939D01*
X193859990Y-114098061D01*
X193820216Y-113898102D01*
X193742195Y-113709744D01*
X193628927Y-113540226D01*
X193573977Y-113485276D01*
X193530536Y-113342068D01*
X193507516Y-113299001D01*
X193459964Y-113210038D01*
X193388789Y-113123312D01*
X193364991Y-113094314D01*
X193335994Y-113070517D01*
X192704477Y-112439001D01*
X192680675Y-112409998D01*
X192564950Y-112315025D01*
X192432921Y-112244453D01*
X192289660Y-112200996D01*
X192178007Y-112189999D01*
X192177996Y-112189999D01*
X192140674Y-112186323D01*
X192103352Y-112189999D01*
X186417484Y-112189999D01*
X186435000Y-112101939D01*
X186435000Y-112039801D01*
X187005545Y-111469256D01*
X187140226Y-111603937D01*
X187309744Y-111717205D01*
X187498102Y-111795226D01*
X187698061Y-111835000D01*
X187901939Y-111835000D01*
X188101898Y-111795226D01*
X188290256Y-111717205D01*
X188459774Y-111603937D01*
X188503711Y-111560000D01*
X202035680Y-111560000D01*
X202073002Y-111563676D01*
X202110324Y-111560000D01*
X202110335Y-111560000D01*
X202221988Y-111549003D01*
X202365249Y-111505546D01*
X202497278Y-111434974D01*
X202613003Y-111340001D01*
X202636806Y-111310997D01*
X205187804Y-108760000D01*
X217496289Y-108760000D01*
X217540226Y-108803937D01*
G36*
X209340198Y-124515000D02*
G01*
X209213740Y-124515000D01*
X208993592Y-124558791D01*
X208748803Y-124314002D01*
X208725000Y-124284998D01*
X208609275Y-124190025D01*
X208477246Y-124119453D01*
X208333985Y-124075996D01*
X208222332Y-124064999D01*
X208222321Y-124064999D01*
X208184999Y-124061323D01*
X208147677Y-124064999D01*
X206293321Y-124064999D01*
X206255998Y-124061323D01*
X206218675Y-124064999D01*
X206218666Y-124064999D01*
X206107013Y-124075996D01*
X205963752Y-124119453D01*
X205831723Y-124190025D01*
X205831721Y-124190026D01*
X205831722Y-124190026D01*
X205744995Y-124261200D01*
X205744991Y-124261204D01*
X205715998Y-124284998D01*
X205692204Y-124313991D01*
X205179184Y-124827013D01*
X205046920Y-124728359D01*
X204784099Y-124603175D01*
X204636890Y-124558524D01*
X204407000Y-124679845D01*
X204407000Y-125873000D01*
X204427000Y-125873000D01*
X204427000Y-126127000D01*
X204407000Y-126127000D01*
X204407000Y-126147000D01*
X204153000Y-126147000D01*
X204153000Y-126127000D01*
X204133000Y-126127000D01*
X204133000Y-125873000D01*
X204153000Y-125873000D01*
X204153000Y-124679845D01*
X203923110Y-124558524D01*
X203775901Y-124603175D01*
X203513080Y-124728359D01*
X203279731Y-124902412D01*
X203084822Y-125118645D01*
X203015195Y-125235534D01*
X202893475Y-125053368D01*
X202686632Y-124846525D01*
X202443411Y-124684010D01*
X202173158Y-124572068D01*
X201886260Y-124515000D01*
X201593740Y-124515000D01*
X201432571Y-124547059D01*
X201210000Y-124324488D01*
X201210000Y-124050700D01*
X201317205Y-123890256D01*
X201395226Y-123701898D01*
X201435000Y-123501939D01*
X201435000Y-123298061D01*
X201395226Y-123098102D01*
X201317205Y-122909744D01*
X201203937Y-122740226D01*
X201059774Y-122596063D01*
X200890256Y-122482795D01*
X200701898Y-122404774D01*
X200501939Y-122365000D01*
X200298061Y-122365000D01*
X200098102Y-122404774D01*
X199909744Y-122482795D01*
X199740226Y-122596063D01*
X199596063Y-122740226D01*
X199482795Y-122909744D01*
X199404774Y-123098102D01*
X199365000Y-123298061D01*
X199365000Y-123501939D01*
X199404774Y-123701898D01*
X199482795Y-123890256D01*
X199590001Y-124050701D01*
X199590001Y-124511928D01*
X198350000Y-124511928D01*
X198225518Y-124524188D01*
X198105820Y-124560498D01*
X197995506Y-124619463D01*
X197898815Y-124698815D01*
X197819463Y-124795506D01*
X197760498Y-124905820D01*
X197724188Y-125025518D01*
X197711928Y-125150000D01*
X197711928Y-126415001D01*
X196531544Y-126415001D01*
X196585000Y-126146260D01*
X196585000Y-125853740D01*
X196527932Y-125566842D01*
X196415990Y-125296589D01*
X196253475Y-125053368D01*
X196046632Y-124846525D01*
X196023235Y-124830892D01*
X196117205Y-124690256D01*
X196195226Y-124501898D01*
X196235000Y-124301939D01*
X196235000Y-124098061D01*
X196195226Y-123898102D01*
X196117205Y-123709744D01*
X196003937Y-123540226D01*
X195859774Y-123396063D01*
X195690256Y-123282795D01*
X195501898Y-123204774D01*
X195301939Y-123165000D01*
X195239802Y-123165000D01*
X193760000Y-121685199D01*
X193760000Y-121360000D01*
X206185199Y-121360000D01*
X209340198Y-124515000D01*
G37*
X209340198Y-124515000D02*
X209213740Y-124515000D01*
X208993592Y-124558791D01*
X208748803Y-124314002D01*
X208725000Y-124284998D01*
X208609275Y-124190025D01*
X208477246Y-124119453D01*
X208333985Y-124075996D01*
X208222332Y-124064999D01*
X208222321Y-124064999D01*
X208184999Y-124061323D01*
X208147677Y-124064999D01*
X206293321Y-124064999D01*
X206255998Y-124061323D01*
X206218675Y-124064999D01*
X206218666Y-124064999D01*
X206107013Y-124075996D01*
X205963752Y-124119453D01*
X205831723Y-124190025D01*
X205831721Y-124190026D01*
X205831722Y-124190026D01*
X205744995Y-124261200D01*
X205744991Y-124261204D01*
X205715998Y-124284998D01*
X205692204Y-124313991D01*
X205179184Y-124827013D01*
X205046920Y-124728359D01*
X204784099Y-124603175D01*
X204636890Y-124558524D01*
X204407000Y-124679845D01*
X204407000Y-125873000D01*
X204427000Y-125873000D01*
X204427000Y-126127000D01*
X204407000Y-126127000D01*
X204407000Y-126147000D01*
X204153000Y-126147000D01*
X204153000Y-126127000D01*
X204133000Y-126127000D01*
X204133000Y-125873000D01*
X204153000Y-125873000D01*
X204153000Y-124679845D01*
X203923110Y-124558524D01*
X203775901Y-124603175D01*
X203513080Y-124728359D01*
X203279731Y-124902412D01*
X203084822Y-125118645D01*
X203015195Y-125235534D01*
X202893475Y-125053368D01*
X202686632Y-124846525D01*
X202443411Y-124684010D01*
X202173158Y-124572068D01*
X201886260Y-124515000D01*
X201593740Y-124515000D01*
X201432571Y-124547059D01*
X201210000Y-124324488D01*
X201210000Y-124050700D01*
X201317205Y-123890256D01*
X201395226Y-123701898D01*
X201435000Y-123501939D01*
X201435000Y-123298061D01*
X201395226Y-123098102D01*
X201317205Y-122909744D01*
X201203937Y-122740226D01*
X201059774Y-122596063D01*
X200890256Y-122482795D01*
X200701898Y-122404774D01*
X200501939Y-122365000D01*
X200298061Y-122365000D01*
X200098102Y-122404774D01*
X199909744Y-122482795D01*
X199740226Y-122596063D01*
X199596063Y-122740226D01*
X199482795Y-122909744D01*
X199404774Y-123098102D01*
X199365000Y-123298061D01*
X199365000Y-123501939D01*
X199404774Y-123701898D01*
X199482795Y-123890256D01*
X199590001Y-124050701D01*
X199590001Y-124511928D01*
X198350000Y-124511928D01*
X198225518Y-124524188D01*
X198105820Y-124560498D01*
X197995506Y-124619463D01*
X197898815Y-124698815D01*
X197819463Y-124795506D01*
X197760498Y-124905820D01*
X197724188Y-125025518D01*
X197711928Y-125150000D01*
X197711928Y-126415001D01*
X196531544Y-126415001D01*
X196585000Y-126146260D01*
X196585000Y-125853740D01*
X196527932Y-125566842D01*
X196415990Y-125296589D01*
X196253475Y-125053368D01*
X196046632Y-124846525D01*
X196023235Y-124830892D01*
X196117205Y-124690256D01*
X196195226Y-124501898D01*
X196235000Y-124301939D01*
X196235000Y-124098061D01*
X196195226Y-123898102D01*
X196117205Y-123709744D01*
X196003937Y-123540226D01*
X195859774Y-123396063D01*
X195690256Y-123282795D01*
X195501898Y-123204774D01*
X195301939Y-123165000D01*
X195239802Y-123165000D01*
X193760000Y-121685199D01*
X193760000Y-121360000D01*
X206185199Y-121360000D01*
X209340198Y-124515000D01*
G36*
X189240000Y-123496289D02*
G01*
X189196063Y-123540226D01*
X189082795Y-123709744D01*
X189004774Y-123898102D01*
X188965000Y-124098061D01*
X188965000Y-124301939D01*
X189004774Y-124501898D01*
X189082795Y-124690256D01*
X189152072Y-124793937D01*
X189073368Y-124846525D01*
X188866525Y-125053368D01*
X188744805Y-125235534D01*
X188675178Y-125118645D01*
X188480269Y-124902412D01*
X188246920Y-124728359D01*
X187984099Y-124603175D01*
X187836890Y-124558524D01*
X187607000Y-124679845D01*
X187607000Y-125873000D01*
X187627000Y-125873000D01*
X187627000Y-126127000D01*
X187607000Y-126127000D01*
X187607000Y-126147000D01*
X187353000Y-126147000D01*
X187353000Y-126127000D01*
X187333000Y-126127000D01*
X187333000Y-125873000D01*
X187353000Y-125873000D01*
X187353000Y-124679845D01*
X187123110Y-124558524D01*
X186975901Y-124603175D01*
X186713080Y-124728359D01*
X186479731Y-124902412D01*
X186284822Y-125118645D01*
X186215195Y-125235534D01*
X186093475Y-125053368D01*
X185886632Y-124846525D01*
X185643411Y-124684010D01*
X185373158Y-124572068D01*
X185086260Y-124515000D01*
X184793740Y-124515000D01*
X184632571Y-124547059D01*
X181800900Y-121715388D01*
X181775528Y-121684472D01*
X181652189Y-121583251D01*
X181511473Y-121508037D01*
X181358788Y-121461720D01*
X181239791Y-121450000D01*
X181239788Y-121450000D01*
X181200000Y-121446081D01*
X181160212Y-121450000D01*
X179044770Y-121450000D01*
X178953475Y-121313368D01*
X178746632Y-121106525D01*
X178564466Y-120984805D01*
X178681355Y-120915178D01*
X178897588Y-120720269D01*
X179071641Y-120486920D01*
X179196825Y-120224099D01*
X179241476Y-120076890D01*
X179120155Y-119847000D01*
X177927000Y-119847000D01*
X177927000Y-119867000D01*
X177673000Y-119867000D01*
X177673000Y-119847000D01*
X177653000Y-119847000D01*
X177653000Y-119593000D01*
X177673000Y-119593000D01*
X177673000Y-119573000D01*
X177927000Y-119573000D01*
X177927000Y-119593000D01*
X179120155Y-119593000D01*
X179241476Y-119363110D01*
X179196825Y-119215901D01*
X179071641Y-118953080D01*
X178897588Y-118719731D01*
X178681355Y-118524822D01*
X178564466Y-118455195D01*
X178746632Y-118333475D01*
X178953475Y-118126632D01*
X179078178Y-117940000D01*
X187807642Y-117940000D01*
X187844964Y-117943676D01*
X187882286Y-117940000D01*
X187882297Y-117940000D01*
X187993950Y-117929003D01*
X188137211Y-117885546D01*
X188269240Y-117814974D01*
X188384965Y-117720001D01*
X188408768Y-117690997D01*
X189240001Y-116859765D01*
X189240000Y-123496289D01*
G37*
X189240000Y-123496289D02*
X189196063Y-123540226D01*
X189082795Y-123709744D01*
X189004774Y-123898102D01*
X188965000Y-124098061D01*
X188965000Y-124301939D01*
X189004774Y-124501898D01*
X189082795Y-124690256D01*
X189152072Y-124793937D01*
X189073368Y-124846525D01*
X188866525Y-125053368D01*
X188744805Y-125235534D01*
X188675178Y-125118645D01*
X188480269Y-124902412D01*
X188246920Y-124728359D01*
X187984099Y-124603175D01*
X187836890Y-124558524D01*
X187607000Y-124679845D01*
X187607000Y-125873000D01*
X187627000Y-125873000D01*
X187627000Y-126127000D01*
X187607000Y-126127000D01*
X187607000Y-126147000D01*
X187353000Y-126147000D01*
X187353000Y-126127000D01*
X187333000Y-126127000D01*
X187333000Y-125873000D01*
X187353000Y-125873000D01*
X187353000Y-124679845D01*
X187123110Y-124558524D01*
X186975901Y-124603175D01*
X186713080Y-124728359D01*
X186479731Y-124902412D01*
X186284822Y-125118645D01*
X186215195Y-125235534D01*
X186093475Y-125053368D01*
X185886632Y-124846525D01*
X185643411Y-124684010D01*
X185373158Y-124572068D01*
X185086260Y-124515000D01*
X184793740Y-124515000D01*
X184632571Y-124547059D01*
X181800900Y-121715388D01*
X181775528Y-121684472D01*
X181652189Y-121583251D01*
X181511473Y-121508037D01*
X181358788Y-121461720D01*
X181239791Y-121450000D01*
X181239788Y-121450000D01*
X181200000Y-121446081D01*
X181160212Y-121450000D01*
X179044770Y-121450000D01*
X178953475Y-121313368D01*
X178746632Y-121106525D01*
X178564466Y-120984805D01*
X178681355Y-120915178D01*
X178897588Y-120720269D01*
X179071641Y-120486920D01*
X179196825Y-120224099D01*
X179241476Y-120076890D01*
X179120155Y-119847000D01*
X177927000Y-119847000D01*
X177927000Y-119867000D01*
X177673000Y-119867000D01*
X177673000Y-119847000D01*
X177653000Y-119847000D01*
X177653000Y-119593000D01*
X177673000Y-119593000D01*
X177673000Y-119573000D01*
X177927000Y-119573000D01*
X177927000Y-119593000D01*
X179120155Y-119593000D01*
X179241476Y-119363110D01*
X179196825Y-119215901D01*
X179071641Y-118953080D01*
X178897588Y-118719731D01*
X178681355Y-118524822D01*
X178564466Y-118455195D01*
X178746632Y-118333475D01*
X178953475Y-118126632D01*
X179078178Y-117940000D01*
X187807642Y-117940000D01*
X187844964Y-117943676D01*
X187882286Y-117940000D01*
X187882297Y-117940000D01*
X187993950Y-117929003D01*
X188137211Y-117885546D01*
X188269240Y-117814974D01*
X188384965Y-117720001D01*
X188408768Y-117690997D01*
X189240001Y-116859765D01*
X189240000Y-123496289D01*
G36*
X197603368Y-94346525D02*
G01*
X197396525Y-94553368D01*
X197234010Y-94796589D01*
X197122068Y-95066842D01*
X197065000Y-95353740D01*
X197065000Y-95646260D01*
X197122068Y-95933158D01*
X197234010Y-96203411D01*
X197396525Y-96446632D01*
X197603368Y-96653475D01*
X197846589Y-96815990D01*
X198116842Y-96927932D01*
X198403740Y-96985000D01*
X198696260Y-96985000D01*
X198983158Y-96927932D01*
X199253411Y-96815990D01*
X199496632Y-96653475D01*
X199703475Y-96446632D01*
X199820000Y-96272240D01*
X199936525Y-96446632D01*
X200143368Y-96653475D01*
X200386589Y-96815990D01*
X200656842Y-96927932D01*
X200943740Y-96985000D01*
X201236260Y-96985000D01*
X201523158Y-96927932D01*
X201793411Y-96815990D01*
X202036632Y-96653475D01*
X202243475Y-96446632D01*
X202360000Y-96272240D01*
X202476525Y-96446632D01*
X202683368Y-96653475D01*
X202926589Y-96815990D01*
X203196842Y-96927932D01*
X203483740Y-96985000D01*
X203776260Y-96985000D01*
X204063158Y-96927932D01*
X204333411Y-96815990D01*
X204576632Y-96653475D01*
X204783475Y-96446632D01*
X204905195Y-96264466D01*
X204974822Y-96381355D01*
X205169731Y-96597588D01*
X205403080Y-96771641D01*
X205665901Y-96896825D01*
X205813110Y-96941476D01*
X206043000Y-96820155D01*
X206043000Y-95627000D01*
X206023000Y-95627000D01*
X206023000Y-95373000D01*
X206043000Y-95373000D01*
X206043000Y-95353000D01*
X206297000Y-95353000D01*
X206297000Y-95373000D01*
X206317000Y-95373000D01*
X206317000Y-95627000D01*
X206297000Y-95627000D01*
X206297000Y-96820155D01*
X206526890Y-96941476D01*
X206674099Y-96896825D01*
X206936920Y-96771641D01*
X207170269Y-96597588D01*
X207365178Y-96381355D01*
X207434805Y-96264466D01*
X207556525Y-96446632D01*
X207763368Y-96653475D01*
X208006589Y-96815990D01*
X208276842Y-96927932D01*
X208563740Y-96985000D01*
X208856260Y-96985000D01*
X209143158Y-96927932D01*
X209413411Y-96815990D01*
X209656632Y-96653475D01*
X209788487Y-96521620D01*
X209810498Y-96594180D01*
X209869463Y-96704494D01*
X209948815Y-96801185D01*
X210045506Y-96880537D01*
X210155820Y-96939502D01*
X210275518Y-96975812D01*
X210400000Y-96988072D01*
X212100000Y-96988072D01*
X212224482Y-96975812D01*
X212344180Y-96939502D01*
X212454494Y-96880537D01*
X212551185Y-96801185D01*
X212630537Y-96704494D01*
X212689502Y-96594180D01*
X212725812Y-96474482D01*
X212738072Y-96350000D01*
X212738072Y-94884999D01*
X219168456Y-94884999D01*
X219115000Y-95153740D01*
X219115000Y-95446260D01*
X219172068Y-95733158D01*
X219284010Y-96003411D01*
X219446525Y-96246632D01*
X219653368Y-96453475D01*
X219827760Y-96570000D01*
X219653368Y-96686525D01*
X219446525Y-96893368D01*
X219284010Y-97136589D01*
X219172068Y-97406842D01*
X219115000Y-97693740D01*
X219115000Y-97986260D01*
X219158790Y-98206407D01*
X218463986Y-98901212D01*
X218434989Y-98925010D01*
X218411191Y-98954008D01*
X218411190Y-98954009D01*
X218340015Y-99040735D01*
X218269443Y-99172765D01*
X218225987Y-99316026D01*
X218211313Y-99465011D01*
X218214990Y-99502344D01*
X218214990Y-106965000D01*
X218098061Y-106965000D01*
X217898102Y-107004774D01*
X217709744Y-107082795D01*
X217540226Y-107196063D01*
X217496289Y-107240000D01*
X204910325Y-107240000D01*
X204873002Y-107236324D01*
X204835679Y-107240000D01*
X204835669Y-107240000D01*
X204724016Y-107250997D01*
X204580755Y-107294454D01*
X204448725Y-107365026D01*
X204365085Y-107433668D01*
X204335000Y-107458358D01*
X204335000Y-107398061D01*
X204295226Y-107198102D01*
X204217205Y-107009744D01*
X204103937Y-106840226D01*
X203959774Y-106696063D01*
X203790256Y-106582795D01*
X203601898Y-106504774D01*
X203401939Y-106465000D01*
X203339802Y-106465000D01*
X201363804Y-104489003D01*
X201340001Y-104459999D01*
X201224276Y-104365026D01*
X201092247Y-104294454D01*
X200948986Y-104250997D01*
X200837333Y-104240000D01*
X200837322Y-104240000D01*
X200800000Y-104236324D01*
X200762678Y-104240000D01*
X188703711Y-104240000D01*
X188659774Y-104196063D01*
X188490256Y-104082795D01*
X188301898Y-104004774D01*
X188101939Y-103965000D01*
X187898061Y-103965000D01*
X187698102Y-104004774D01*
X187509744Y-104082795D01*
X187340226Y-104196063D01*
X187196063Y-104340226D01*
X187177171Y-104368500D01*
X187169987Y-104357748D01*
X186942252Y-104130013D01*
X186674463Y-103951082D01*
X186660000Y-103945091D01*
X186660000Y-102614801D01*
X187914802Y-101360000D01*
X188511928Y-101360000D01*
X188511928Y-101450000D01*
X188524188Y-101574482D01*
X188560498Y-101694180D01*
X188619463Y-101804494D01*
X188698815Y-101901185D01*
X188795506Y-101980537D01*
X188905820Y-102039502D01*
X189025518Y-102075812D01*
X189150000Y-102088072D01*
X189345674Y-102088072D01*
X189365026Y-102124276D01*
X189388665Y-102153080D01*
X189459999Y-102240001D01*
X189489002Y-102263803D01*
X190261202Y-103036003D01*
X190285000Y-103065002D01*
X190313998Y-103088800D01*
X190400725Y-103159975D01*
X190532754Y-103230547D01*
X190676015Y-103274004D01*
X190825001Y-103288678D01*
X190862334Y-103285001D01*
X195710679Y-103285001D01*
X195748001Y-103288677D01*
X195785323Y-103285001D01*
X195785334Y-103285001D01*
X195896987Y-103274004D01*
X196040248Y-103230547D01*
X196172277Y-103159975D01*
X196288002Y-103065002D01*
X196311804Y-103035999D01*
X196395201Y-102952603D01*
X196498102Y-102995226D01*
X196698061Y-103035000D01*
X196901939Y-103035000D01*
X197101898Y-102995226D01*
X197290256Y-102917205D01*
X197459774Y-102803937D01*
X197503711Y-102760000D01*
X202162678Y-102760000D01*
X202200000Y-102763676D01*
X202237322Y-102760000D01*
X202237333Y-102760000D01*
X202348986Y-102749003D01*
X202492247Y-102705546D01*
X202624276Y-102634974D01*
X202740001Y-102540001D01*
X202763804Y-102510997D01*
X203839802Y-101435000D01*
X203901939Y-101435000D01*
X204101898Y-101395226D01*
X204290256Y-101317205D01*
X204459774Y-101203937D01*
X204603937Y-101059774D01*
X204717205Y-100890256D01*
X204795226Y-100701898D01*
X204835000Y-100501939D01*
X204835000Y-100298061D01*
X204795226Y-100098102D01*
X204717205Y-99909744D01*
X204603937Y-99740226D01*
X204459774Y-99596063D01*
X204290256Y-99482795D01*
X204101898Y-99404774D01*
X203901939Y-99365000D01*
X203698061Y-99365000D01*
X203498102Y-99404774D01*
X203309744Y-99482795D01*
X203140226Y-99596063D01*
X202996063Y-99740226D01*
X202882795Y-99909744D01*
X202804774Y-100098102D01*
X202765000Y-100298061D01*
X202765000Y-100360198D01*
X201885199Y-101240000D01*
X197503711Y-101240000D01*
X197459774Y-101196063D01*
X197290256Y-101082795D01*
X197101898Y-101004774D01*
X196901939Y-100965000D01*
X196698061Y-100965000D01*
X196498102Y-101004774D01*
X196309744Y-101082795D01*
X196210065Y-101149398D01*
X196203937Y-101140226D01*
X196163711Y-101100000D01*
X196203937Y-101059774D01*
X196317205Y-100890256D01*
X196395226Y-100701898D01*
X196435000Y-100501939D01*
X196435000Y-100298061D01*
X196395226Y-100098102D01*
X196317205Y-99909744D01*
X196203937Y-99740226D01*
X196059774Y-99596063D01*
X195890256Y-99482795D01*
X195701898Y-99404774D01*
X195501939Y-99365000D01*
X195298061Y-99365000D01*
X195098102Y-99404774D01*
X194909744Y-99482795D01*
X194740226Y-99596063D01*
X194596063Y-99740226D01*
X194482795Y-99909744D01*
X194404774Y-100098102D01*
X194365000Y-100298061D01*
X194365000Y-100501939D01*
X194404774Y-100701898D01*
X194482795Y-100890256D01*
X194596063Y-101059774D01*
X194636289Y-101100000D01*
X194596063Y-101140226D01*
X194482795Y-101309744D01*
X194404774Y-101498102D01*
X194365000Y-101698061D01*
X194365000Y-101765001D01*
X191401647Y-101765001D01*
X191439502Y-101694180D01*
X191475812Y-101574482D01*
X191488072Y-101450000D01*
X191488072Y-99750000D01*
X191475812Y-99625518D01*
X191439502Y-99505820D01*
X191380537Y-99395506D01*
X191301185Y-99298815D01*
X191204494Y-99219463D01*
X191094180Y-99160498D01*
X190974482Y-99124188D01*
X190850000Y-99111928D01*
X189150000Y-99111928D01*
X189025518Y-99124188D01*
X188905820Y-99160498D01*
X188795506Y-99219463D01*
X188698815Y-99298815D01*
X188619463Y-99395506D01*
X188560498Y-99505820D01*
X188524188Y-99625518D01*
X188511928Y-99750000D01*
X188511928Y-99840000D01*
X187637322Y-99840000D01*
X187599999Y-99836324D01*
X187562676Y-99840000D01*
X187562667Y-99840000D01*
X187451014Y-99850997D01*
X187324787Y-99889287D01*
X187307753Y-99894454D01*
X187175723Y-99965026D01*
X187098003Y-100028810D01*
X187059999Y-100059999D01*
X187036201Y-100088997D01*
X186660000Y-100465198D01*
X186660000Y-100354909D01*
X186674463Y-100348918D01*
X186942252Y-100169987D01*
X187169987Y-99942252D01*
X187348918Y-99674463D01*
X187472168Y-99376912D01*
X187535000Y-99061033D01*
X187535000Y-98738967D01*
X187487082Y-98498061D01*
X206565000Y-98498061D01*
X206565000Y-98701939D01*
X206604774Y-98901898D01*
X206682795Y-99090256D01*
X206796063Y-99259774D01*
X206940226Y-99403937D01*
X207109744Y-99517205D01*
X207298102Y-99595226D01*
X207487358Y-99632871D01*
X207599105Y-99744617D01*
X207624472Y-99775528D01*
X207674033Y-99816201D01*
X207747810Y-99876749D01*
X207815782Y-99913080D01*
X207888527Y-99951963D01*
X208041212Y-99998280D01*
X208160209Y-100010000D01*
X208160211Y-100010000D01*
X208199999Y-100013919D01*
X208239787Y-100010000D01*
X210149300Y-100010000D01*
X210309744Y-100117205D01*
X210498102Y-100195226D01*
X210698061Y-100235000D01*
X210901939Y-100235000D01*
X211101898Y-100195226D01*
X211290256Y-100117205D01*
X211459774Y-100003937D01*
X211603937Y-99859774D01*
X211717205Y-99690256D01*
X211795226Y-99501898D01*
X211835000Y-99301939D01*
X211835000Y-99098061D01*
X211795226Y-98898102D01*
X211717205Y-98709744D01*
X211603937Y-98540226D01*
X211459774Y-98396063D01*
X211290256Y-98282795D01*
X211101898Y-98204774D01*
X210901939Y-98165000D01*
X210698061Y-98165000D01*
X210498102Y-98204774D01*
X210309744Y-98282795D01*
X210149300Y-98390000D01*
X208613506Y-98390000D01*
X208595226Y-98298102D01*
X208517205Y-98109744D01*
X208403937Y-97940226D01*
X208259774Y-97796063D01*
X208090256Y-97682795D01*
X207901898Y-97604774D01*
X207701939Y-97565000D01*
X207498061Y-97565000D01*
X207298102Y-97604774D01*
X207109744Y-97682795D01*
X206940226Y-97796063D01*
X206796063Y-97940226D01*
X206682795Y-98109744D01*
X206604774Y-98298102D01*
X206565000Y-98498061D01*
X187487082Y-98498061D01*
X187472168Y-98423088D01*
X187348918Y-98125537D01*
X187169987Y-97857748D01*
X186942252Y-97630013D01*
X186674463Y-97451082D01*
X186376912Y-97327832D01*
X186061033Y-97265000D01*
X185738967Y-97265000D01*
X185423088Y-97327832D01*
X185125537Y-97451082D01*
X184857748Y-97630013D01*
X184630013Y-97857748D01*
X184451082Y-98125537D01*
X184327832Y-98423088D01*
X184265000Y-98738967D01*
X184265000Y-99061033D01*
X184327832Y-99376912D01*
X184451082Y-99674463D01*
X184630013Y-99942252D01*
X184857748Y-100169987D01*
X185125537Y-100348918D01*
X185140000Y-100354909D01*
X185140001Y-102262663D01*
X185140000Y-102262668D01*
X185140000Y-102262678D01*
X185136324Y-102300000D01*
X185140000Y-102337323D01*
X185140001Y-103146314D01*
X185140001Y-103945091D01*
X185125537Y-103951082D01*
X184857748Y-104130013D01*
X184630013Y-104357748D01*
X184451082Y-104625537D01*
X184327832Y-104923088D01*
X184265000Y-105238967D01*
X184265000Y-105561033D01*
X184327832Y-105876912D01*
X184451082Y-106174463D01*
X184630013Y-106442252D01*
X184857748Y-106669987D01*
X185125537Y-106848918D01*
X185423088Y-106972168D01*
X185738967Y-107035000D01*
X186061033Y-107035000D01*
X186376912Y-106972168D01*
X186674463Y-106848918D01*
X186942252Y-106669987D01*
X187098491Y-106513748D01*
X187196063Y-106659774D01*
X187340226Y-106803937D01*
X187509744Y-106917205D01*
X187698102Y-106995226D01*
X187898061Y-107035000D01*
X188101939Y-107035000D01*
X188301898Y-106995226D01*
X188490256Y-106917205D01*
X188659774Y-106803937D01*
X188703711Y-106760000D01*
X199919514Y-106760000D01*
X202170516Y-109011003D01*
X202194314Y-109040001D01*
X202223312Y-109063799D01*
X202310038Y-109134974D01*
X202439058Y-109203937D01*
X202442068Y-109205546D01*
X202557607Y-109240594D01*
X201758201Y-110040000D01*
X200817150Y-110040000D01*
X200917205Y-109890256D01*
X200995226Y-109701898D01*
X201035000Y-109501939D01*
X201035000Y-109298061D01*
X200995226Y-109098102D01*
X200917205Y-108909744D01*
X200910694Y-108900000D01*
X200917205Y-108890256D01*
X200995226Y-108701898D01*
X201035000Y-108501939D01*
X201035000Y-108298061D01*
X200995226Y-108098102D01*
X200917205Y-107909744D01*
X200803937Y-107740226D01*
X200659774Y-107596063D01*
X200490256Y-107482795D01*
X200301898Y-107404774D01*
X200101939Y-107365000D01*
X199898061Y-107365000D01*
X199698102Y-107404774D01*
X199509744Y-107482795D01*
X199340226Y-107596063D01*
X199296289Y-107640000D01*
X186662645Y-107640000D01*
X186625320Y-107636324D01*
X186587995Y-107640000D01*
X186587987Y-107640000D01*
X186476334Y-107650997D01*
X186333073Y-107694454D01*
X186201044Y-107765026D01*
X186085319Y-107859999D01*
X186061521Y-107888997D01*
X182972859Y-110977660D01*
X182910721Y-110977660D01*
X182710762Y-111017434D01*
X182522404Y-111095455D01*
X182352886Y-111208723D01*
X182208723Y-111352886D01*
X182095455Y-111522404D01*
X182017434Y-111710762D01*
X181977660Y-111910721D01*
X181977660Y-112114599D01*
X181992658Y-112189999D01*
X179285000Y-112189999D01*
X179285000Y-111953740D01*
X179227932Y-111666842D01*
X179115990Y-111396589D01*
X178953475Y-111153368D01*
X178746632Y-110946525D01*
X178503411Y-110784010D01*
X178233158Y-110672068D01*
X177946260Y-110615000D01*
X177710001Y-110615000D01*
X177710001Y-109785000D01*
X177946260Y-109785000D01*
X178233158Y-109727932D01*
X178503411Y-109615990D01*
X178746632Y-109453475D01*
X178953475Y-109246632D01*
X179115990Y-109003411D01*
X179227932Y-108733158D01*
X179285000Y-108446260D01*
X179285000Y-108153740D01*
X179241210Y-107933592D01*
X179486005Y-107688797D01*
X179515002Y-107665000D01*
X179609975Y-107549275D01*
X179680547Y-107417246D01*
X179724004Y-107273985D01*
X179735001Y-107162332D01*
X179735001Y-107162323D01*
X179738677Y-107125000D01*
X179735001Y-107087677D01*
X179735001Y-106535413D01*
X180444192Y-106535413D01*
X180539956Y-106799814D01*
X180829571Y-106940704D01*
X181141108Y-107022384D01*
X181462595Y-107041718D01*
X181781675Y-106997961D01*
X182086088Y-106892795D01*
X182260044Y-106799814D01*
X182355808Y-106535413D01*
X181400000Y-105579605D01*
X180444192Y-106535413D01*
X179735001Y-106535413D01*
X179735001Y-105536210D01*
X179764352Y-105506859D01*
X179802039Y-105781675D01*
X179907205Y-106086088D01*
X180000186Y-106260044D01*
X180264587Y-106355808D01*
X181220395Y-105400000D01*
X181579605Y-105400000D01*
X182535413Y-106355808D01*
X182799814Y-106260044D01*
X182940704Y-105970429D01*
X183022384Y-105658892D01*
X183041718Y-105337405D01*
X182997961Y-105018325D01*
X182892795Y-104713912D01*
X182799814Y-104539956D01*
X182535413Y-104444192D01*
X181579605Y-105400000D01*
X181220395Y-105400000D01*
X181206253Y-105385858D01*
X181385858Y-105206253D01*
X181400000Y-105220395D01*
X182355808Y-104264587D01*
X182260044Y-104000186D01*
X181970429Y-103859296D01*
X181658892Y-103777616D01*
X181502972Y-103768239D01*
X183661003Y-101610209D01*
X183690000Y-101586412D01*
X183784973Y-101470687D01*
X183855545Y-101338658D01*
X183899002Y-101195397D01*
X183909999Y-101083744D01*
X183909999Y-101083736D01*
X183913675Y-101046411D01*
X183909999Y-101009086D01*
X183909999Y-96664587D01*
X184136589Y-96815990D01*
X184406842Y-96927932D01*
X184693740Y-96985000D01*
X184986260Y-96985000D01*
X185273158Y-96927932D01*
X185543411Y-96815990D01*
X185786632Y-96653475D01*
X185993475Y-96446632D01*
X186110000Y-96272240D01*
X186226525Y-96446632D01*
X186433368Y-96653475D01*
X186676589Y-96815990D01*
X186946842Y-96927932D01*
X187233740Y-96985000D01*
X187526260Y-96985000D01*
X187813158Y-96927932D01*
X188083411Y-96815990D01*
X188326632Y-96653475D01*
X188533475Y-96446632D01*
X188655195Y-96264466D01*
X188724822Y-96381355D01*
X188919731Y-96597588D01*
X189153080Y-96771641D01*
X189415901Y-96896825D01*
X189563110Y-96941476D01*
X189793000Y-96820155D01*
X189793000Y-95627000D01*
X189773000Y-95627000D01*
X189773000Y-95373000D01*
X189793000Y-95373000D01*
X189793000Y-95353000D01*
X190047000Y-95353000D01*
X190047000Y-95373000D01*
X190067000Y-95373000D01*
X190067000Y-95627000D01*
X190047000Y-95627000D01*
X190047000Y-96820155D01*
X190276890Y-96941476D01*
X190424099Y-96896825D01*
X190686920Y-96771641D01*
X190920269Y-96597588D01*
X191115178Y-96381355D01*
X191184805Y-96264466D01*
X191306525Y-96446632D01*
X191513368Y-96653475D01*
X191756589Y-96815990D01*
X192026842Y-96927932D01*
X192313740Y-96985000D01*
X192606260Y-96985000D01*
X192893158Y-96927932D01*
X193163411Y-96815990D01*
X193406632Y-96653475D01*
X193538487Y-96521620D01*
X193560498Y-96594180D01*
X193619463Y-96704494D01*
X193698815Y-96801185D01*
X193795506Y-96880537D01*
X193905820Y-96939502D01*
X194025518Y-96975812D01*
X194150000Y-96988072D01*
X195850000Y-96988072D01*
X195974482Y-96975812D01*
X196094180Y-96939502D01*
X196204494Y-96880537D01*
X196301185Y-96801185D01*
X196380537Y-96704494D01*
X196439502Y-96594180D01*
X196475812Y-96474482D01*
X196488072Y-96350000D01*
X196488072Y-94650000D01*
X196475812Y-94525518D01*
X196439502Y-94405820D01*
X196380537Y-94295506D01*
X196335036Y-94240063D01*
X197772175Y-94233732D01*
X197603368Y-94346525D01*
G37*
X197603368Y-94346525D02*
X197396525Y-94553368D01*
X197234010Y-94796589D01*
X197122068Y-95066842D01*
X197065000Y-95353740D01*
X197065000Y-95646260D01*
X197122068Y-95933158D01*
X197234010Y-96203411D01*
X197396525Y-96446632D01*
X197603368Y-96653475D01*
X197846589Y-96815990D01*
X198116842Y-96927932D01*
X198403740Y-96985000D01*
X198696260Y-96985000D01*
X198983158Y-96927932D01*
X199253411Y-96815990D01*
X199496632Y-96653475D01*
X199703475Y-96446632D01*
X199820000Y-96272240D01*
X199936525Y-96446632D01*
X200143368Y-96653475D01*
X200386589Y-96815990D01*
X200656842Y-96927932D01*
X200943740Y-96985000D01*
X201236260Y-96985000D01*
X201523158Y-96927932D01*
X201793411Y-96815990D01*
X202036632Y-96653475D01*
X202243475Y-96446632D01*
X202360000Y-96272240D01*
X202476525Y-96446632D01*
X202683368Y-96653475D01*
X202926589Y-96815990D01*
X203196842Y-96927932D01*
X203483740Y-96985000D01*
X203776260Y-96985000D01*
X204063158Y-96927932D01*
X204333411Y-96815990D01*
X204576632Y-96653475D01*
X204783475Y-96446632D01*
X204905195Y-96264466D01*
X204974822Y-96381355D01*
X205169731Y-96597588D01*
X205403080Y-96771641D01*
X205665901Y-96896825D01*
X205813110Y-96941476D01*
X206043000Y-96820155D01*
X206043000Y-95627000D01*
X206023000Y-95627000D01*
X206023000Y-95373000D01*
X206043000Y-95373000D01*
X206043000Y-95353000D01*
X206297000Y-95353000D01*
X206297000Y-95373000D01*
X206317000Y-95373000D01*
X206317000Y-95627000D01*
X206297000Y-95627000D01*
X206297000Y-96820155D01*
X206526890Y-96941476D01*
X206674099Y-96896825D01*
X206936920Y-96771641D01*
X207170269Y-96597588D01*
X207365178Y-96381355D01*
X207434805Y-96264466D01*
X207556525Y-96446632D01*
X207763368Y-96653475D01*
X208006589Y-96815990D01*
X208276842Y-96927932D01*
X208563740Y-96985000D01*
X208856260Y-96985000D01*
X209143158Y-96927932D01*
X209413411Y-96815990D01*
X209656632Y-96653475D01*
X209788487Y-96521620D01*
X209810498Y-96594180D01*
X209869463Y-96704494D01*
X209948815Y-96801185D01*
X210045506Y-96880537D01*
X210155820Y-96939502D01*
X210275518Y-96975812D01*
X210400000Y-96988072D01*
X212100000Y-96988072D01*
X212224482Y-96975812D01*
X212344180Y-96939502D01*
X212454494Y-96880537D01*
X212551185Y-96801185D01*
X212630537Y-96704494D01*
X212689502Y-96594180D01*
X212725812Y-96474482D01*
X212738072Y-96350000D01*
X212738072Y-94884999D01*
X219168456Y-94884999D01*
X219115000Y-95153740D01*
X219115000Y-95446260D01*
X219172068Y-95733158D01*
X219284010Y-96003411D01*
X219446525Y-96246632D01*
X219653368Y-96453475D01*
X219827760Y-96570000D01*
X219653368Y-96686525D01*
X219446525Y-96893368D01*
X219284010Y-97136589D01*
X219172068Y-97406842D01*
X219115000Y-97693740D01*
X219115000Y-97986260D01*
X219158790Y-98206407D01*
X218463986Y-98901212D01*
X218434989Y-98925010D01*
X218411191Y-98954008D01*
X218411190Y-98954009D01*
X218340015Y-99040735D01*
X218269443Y-99172765D01*
X218225987Y-99316026D01*
X218211313Y-99465011D01*
X218214990Y-99502344D01*
X218214990Y-106965000D01*
X218098061Y-106965000D01*
X217898102Y-107004774D01*
X217709744Y-107082795D01*
X217540226Y-107196063D01*
X217496289Y-107240000D01*
X204910325Y-107240000D01*
X204873002Y-107236324D01*
X204835679Y-107240000D01*
X204835669Y-107240000D01*
X204724016Y-107250997D01*
X204580755Y-107294454D01*
X204448725Y-107365026D01*
X204365085Y-107433668D01*
X204335000Y-107458358D01*
X204335000Y-107398061D01*
X204295226Y-107198102D01*
X204217205Y-107009744D01*
X204103937Y-106840226D01*
X203959774Y-106696063D01*
X203790256Y-106582795D01*
X203601898Y-106504774D01*
X203401939Y-106465000D01*
X203339802Y-106465000D01*
X201363804Y-104489003D01*
X201340001Y-104459999D01*
X201224276Y-104365026D01*
X201092247Y-104294454D01*
X200948986Y-104250997D01*
X200837333Y-104240000D01*
X200837322Y-104240000D01*
X200800000Y-104236324D01*
X200762678Y-104240000D01*
X188703711Y-104240000D01*
X188659774Y-104196063D01*
X188490256Y-104082795D01*
X188301898Y-104004774D01*
X188101939Y-103965000D01*
X187898061Y-103965000D01*
X187698102Y-104004774D01*
X187509744Y-104082795D01*
X187340226Y-104196063D01*
X187196063Y-104340226D01*
X187177171Y-104368500D01*
X187169987Y-104357748D01*
X186942252Y-104130013D01*
X186674463Y-103951082D01*
X186660000Y-103945091D01*
X186660000Y-102614801D01*
X187914802Y-101360000D01*
X188511928Y-101360000D01*
X188511928Y-101450000D01*
X188524188Y-101574482D01*
X188560498Y-101694180D01*
X188619463Y-101804494D01*
X188698815Y-101901185D01*
X188795506Y-101980537D01*
X188905820Y-102039502D01*
X189025518Y-102075812D01*
X189150000Y-102088072D01*
X189345674Y-102088072D01*
X189365026Y-102124276D01*
X189388665Y-102153080D01*
X189459999Y-102240001D01*
X189489002Y-102263803D01*
X190261202Y-103036003D01*
X190285000Y-103065002D01*
X190313998Y-103088800D01*
X190400725Y-103159975D01*
X190532754Y-103230547D01*
X190676015Y-103274004D01*
X190825001Y-103288678D01*
X190862334Y-103285001D01*
X195710679Y-103285001D01*
X195748001Y-103288677D01*
X195785323Y-103285001D01*
X195785334Y-103285001D01*
X195896987Y-103274004D01*
X196040248Y-103230547D01*
X196172277Y-103159975D01*
X196288002Y-103065002D01*
X196311804Y-103035999D01*
X196395201Y-102952603D01*
X196498102Y-102995226D01*
X196698061Y-103035000D01*
X196901939Y-103035000D01*
X197101898Y-102995226D01*
X197290256Y-102917205D01*
X197459774Y-102803937D01*
X197503711Y-102760000D01*
X202162678Y-102760000D01*
X202200000Y-102763676D01*
X202237322Y-102760000D01*
X202237333Y-102760000D01*
X202348986Y-102749003D01*
X202492247Y-102705546D01*
X202624276Y-102634974D01*
X202740001Y-102540001D01*
X202763804Y-102510997D01*
X203839802Y-101435000D01*
X203901939Y-101435000D01*
X204101898Y-101395226D01*
X204290256Y-101317205D01*
X204459774Y-101203937D01*
X204603937Y-101059774D01*
X204717205Y-100890256D01*
X204795226Y-100701898D01*
X204835000Y-100501939D01*
X204835000Y-100298061D01*
X204795226Y-100098102D01*
X204717205Y-99909744D01*
X204603937Y-99740226D01*
X204459774Y-99596063D01*
X204290256Y-99482795D01*
X204101898Y-99404774D01*
X203901939Y-99365000D01*
X203698061Y-99365000D01*
X203498102Y-99404774D01*
X203309744Y-99482795D01*
X203140226Y-99596063D01*
X202996063Y-99740226D01*
X202882795Y-99909744D01*
X202804774Y-100098102D01*
X202765000Y-100298061D01*
X202765000Y-100360198D01*
X201885199Y-101240000D01*
X197503711Y-101240000D01*
X197459774Y-101196063D01*
X197290256Y-101082795D01*
X197101898Y-101004774D01*
X196901939Y-100965000D01*
X196698061Y-100965000D01*
X196498102Y-101004774D01*
X196309744Y-101082795D01*
X196210065Y-101149398D01*
X196203937Y-101140226D01*
X196163711Y-101100000D01*
X196203937Y-101059774D01*
X196317205Y-100890256D01*
X196395226Y-100701898D01*
X196435000Y-100501939D01*
X196435000Y-100298061D01*
X196395226Y-100098102D01*
X196317205Y-99909744D01*
X196203937Y-99740226D01*
X196059774Y-99596063D01*
X195890256Y-99482795D01*
X195701898Y-99404774D01*
X195501939Y-99365000D01*
X195298061Y-99365000D01*
X195098102Y-99404774D01*
X194909744Y-99482795D01*
X194740226Y-99596063D01*
X194596063Y-99740226D01*
X194482795Y-99909744D01*
X194404774Y-100098102D01*
X194365000Y-100298061D01*
X194365000Y-100501939D01*
X194404774Y-100701898D01*
X194482795Y-100890256D01*
X194596063Y-101059774D01*
X194636289Y-101100000D01*
X194596063Y-101140226D01*
X194482795Y-101309744D01*
X194404774Y-101498102D01*
X194365000Y-101698061D01*
X194365000Y-101765001D01*
X191401647Y-101765001D01*
X191439502Y-101694180D01*
X191475812Y-101574482D01*
X191488072Y-101450000D01*
X191488072Y-99750000D01*
X191475812Y-99625518D01*
X191439502Y-99505820D01*
X191380537Y-99395506D01*
X191301185Y-99298815D01*
X191204494Y-99219463D01*
X191094180Y-99160498D01*
X190974482Y-99124188D01*
X190850000Y-99111928D01*
X189150000Y-99111928D01*
X189025518Y-99124188D01*
X188905820Y-99160498D01*
X188795506Y-99219463D01*
X188698815Y-99298815D01*
X188619463Y-99395506D01*
X188560498Y-99505820D01*
X188524188Y-99625518D01*
X188511928Y-99750000D01*
X188511928Y-99840000D01*
X187637322Y-99840000D01*
X187599999Y-99836324D01*
X187562676Y-99840000D01*
X187562667Y-99840000D01*
X187451014Y-99850997D01*
X187324787Y-99889287D01*
X187307753Y-99894454D01*
X187175723Y-99965026D01*
X187098003Y-100028810D01*
X187059999Y-100059999D01*
X187036201Y-100088997D01*
X186660000Y-100465198D01*
X186660000Y-100354909D01*
X186674463Y-100348918D01*
X186942252Y-100169987D01*
X187169987Y-99942252D01*
X187348918Y-99674463D01*
X187472168Y-99376912D01*
X187535000Y-99061033D01*
X187535000Y-98738967D01*
X187487082Y-98498061D01*
X206565000Y-98498061D01*
X206565000Y-98701939D01*
X206604774Y-98901898D01*
X206682795Y-99090256D01*
X206796063Y-99259774D01*
X206940226Y-99403937D01*
X207109744Y-99517205D01*
X207298102Y-99595226D01*
X207487358Y-99632871D01*
X207599105Y-99744617D01*
X207624472Y-99775528D01*
X207674033Y-99816201D01*
X207747810Y-99876749D01*
X207815782Y-99913080D01*
X207888527Y-99951963D01*
X208041212Y-99998280D01*
X208160209Y-100010000D01*
X208160211Y-100010000D01*
X208199999Y-100013919D01*
X208239787Y-100010000D01*
X210149300Y-100010000D01*
X210309744Y-100117205D01*
X210498102Y-100195226D01*
X210698061Y-100235000D01*
X210901939Y-100235000D01*
X211101898Y-100195226D01*
X211290256Y-100117205D01*
X211459774Y-100003937D01*
X211603937Y-99859774D01*
X211717205Y-99690256D01*
X211795226Y-99501898D01*
X211835000Y-99301939D01*
X211835000Y-99098061D01*
X211795226Y-98898102D01*
X211717205Y-98709744D01*
X211603937Y-98540226D01*
X211459774Y-98396063D01*
X211290256Y-98282795D01*
X211101898Y-98204774D01*
X210901939Y-98165000D01*
X210698061Y-98165000D01*
X210498102Y-98204774D01*
X210309744Y-98282795D01*
X210149300Y-98390000D01*
X208613506Y-98390000D01*
X208595226Y-98298102D01*
X208517205Y-98109744D01*
X208403937Y-97940226D01*
X208259774Y-97796063D01*
X208090256Y-97682795D01*
X207901898Y-97604774D01*
X207701939Y-97565000D01*
X207498061Y-97565000D01*
X207298102Y-97604774D01*
X207109744Y-97682795D01*
X206940226Y-97796063D01*
X206796063Y-97940226D01*
X206682795Y-98109744D01*
X206604774Y-98298102D01*
X206565000Y-98498061D01*
X187487082Y-98498061D01*
X187472168Y-98423088D01*
X187348918Y-98125537D01*
X187169987Y-97857748D01*
X186942252Y-97630013D01*
X186674463Y-97451082D01*
X186376912Y-97327832D01*
X186061033Y-97265000D01*
X185738967Y-97265000D01*
X185423088Y-97327832D01*
X185125537Y-97451082D01*
X184857748Y-97630013D01*
X184630013Y-97857748D01*
X184451082Y-98125537D01*
X184327832Y-98423088D01*
X184265000Y-98738967D01*
X184265000Y-99061033D01*
X184327832Y-99376912D01*
X184451082Y-99674463D01*
X184630013Y-99942252D01*
X184857748Y-100169987D01*
X185125537Y-100348918D01*
X185140000Y-100354909D01*
X185140001Y-102262663D01*
X185140000Y-102262668D01*
X185140000Y-102262678D01*
X185136324Y-102300000D01*
X185140000Y-102337323D01*
X185140001Y-103146314D01*
X185140001Y-103945091D01*
X185125537Y-103951082D01*
X184857748Y-104130013D01*
X184630013Y-104357748D01*
X184451082Y-104625537D01*
X184327832Y-104923088D01*
X184265000Y-105238967D01*
X184265000Y-105561033D01*
X184327832Y-105876912D01*
X184451082Y-106174463D01*
X184630013Y-106442252D01*
X184857748Y-106669987D01*
X185125537Y-106848918D01*
X185423088Y-106972168D01*
X185738967Y-107035000D01*
X186061033Y-107035000D01*
X186376912Y-106972168D01*
X186674463Y-106848918D01*
X186942252Y-106669987D01*
X187098491Y-106513748D01*
X187196063Y-106659774D01*
X187340226Y-106803937D01*
X187509744Y-106917205D01*
X187698102Y-106995226D01*
X187898061Y-107035000D01*
X188101939Y-107035000D01*
X188301898Y-106995226D01*
X188490256Y-106917205D01*
X188659774Y-106803937D01*
X188703711Y-106760000D01*
X199919514Y-106760000D01*
X202170516Y-109011003D01*
X202194314Y-109040001D01*
X202223312Y-109063799D01*
X202310038Y-109134974D01*
X202439058Y-109203937D01*
X202442068Y-109205546D01*
X202557607Y-109240594D01*
X201758201Y-110040000D01*
X200817150Y-110040000D01*
X200917205Y-109890256D01*
X200995226Y-109701898D01*
X201035000Y-109501939D01*
X201035000Y-109298061D01*
X200995226Y-109098102D01*
X200917205Y-108909744D01*
X200910694Y-108900000D01*
X200917205Y-108890256D01*
X200995226Y-108701898D01*
X201035000Y-108501939D01*
X201035000Y-108298061D01*
X200995226Y-108098102D01*
X200917205Y-107909744D01*
X200803937Y-107740226D01*
X200659774Y-107596063D01*
X200490256Y-107482795D01*
X200301898Y-107404774D01*
X200101939Y-107365000D01*
X199898061Y-107365000D01*
X199698102Y-107404774D01*
X199509744Y-107482795D01*
X199340226Y-107596063D01*
X199296289Y-107640000D01*
X186662645Y-107640000D01*
X186625320Y-107636324D01*
X186587995Y-107640000D01*
X186587987Y-107640000D01*
X186476334Y-107650997D01*
X186333073Y-107694454D01*
X186201044Y-107765026D01*
X186085319Y-107859999D01*
X186061521Y-107888997D01*
X182972859Y-110977660D01*
X182910721Y-110977660D01*
X182710762Y-111017434D01*
X182522404Y-111095455D01*
X182352886Y-111208723D01*
X182208723Y-111352886D01*
X182095455Y-111522404D01*
X182017434Y-111710762D01*
X181977660Y-111910721D01*
X181977660Y-112114599D01*
X181992658Y-112189999D01*
X179285000Y-112189999D01*
X179285000Y-111953740D01*
X179227932Y-111666842D01*
X179115990Y-111396589D01*
X178953475Y-111153368D01*
X178746632Y-110946525D01*
X178503411Y-110784010D01*
X178233158Y-110672068D01*
X177946260Y-110615000D01*
X177710001Y-110615000D01*
X177710001Y-109785000D01*
X177946260Y-109785000D01*
X178233158Y-109727932D01*
X178503411Y-109615990D01*
X178746632Y-109453475D01*
X178953475Y-109246632D01*
X179115990Y-109003411D01*
X179227932Y-108733158D01*
X179285000Y-108446260D01*
X179285000Y-108153740D01*
X179241210Y-107933592D01*
X179486005Y-107688797D01*
X179515002Y-107665000D01*
X179609975Y-107549275D01*
X179680547Y-107417246D01*
X179724004Y-107273985D01*
X179735001Y-107162332D01*
X179735001Y-107162323D01*
X179738677Y-107125000D01*
X179735001Y-107087677D01*
X179735001Y-106535413D01*
X180444192Y-106535413D01*
X180539956Y-106799814D01*
X180829571Y-106940704D01*
X181141108Y-107022384D01*
X181462595Y-107041718D01*
X181781675Y-106997961D01*
X182086088Y-106892795D01*
X182260044Y-106799814D01*
X182355808Y-106535413D01*
X181400000Y-105579605D01*
X180444192Y-106535413D01*
X179735001Y-106535413D01*
X179735001Y-105536210D01*
X179764352Y-105506859D01*
X179802039Y-105781675D01*
X179907205Y-106086088D01*
X180000186Y-106260044D01*
X180264587Y-106355808D01*
X181220395Y-105400000D01*
X181579605Y-105400000D01*
X182535413Y-106355808D01*
X182799814Y-106260044D01*
X182940704Y-105970429D01*
X183022384Y-105658892D01*
X183041718Y-105337405D01*
X182997961Y-105018325D01*
X182892795Y-104713912D01*
X182799814Y-104539956D01*
X182535413Y-104444192D01*
X181579605Y-105400000D01*
X181220395Y-105400000D01*
X181206253Y-105385858D01*
X181385858Y-105206253D01*
X181400000Y-105220395D01*
X182355808Y-104264587D01*
X182260044Y-104000186D01*
X181970429Y-103859296D01*
X181658892Y-103777616D01*
X181502972Y-103768239D01*
X183661003Y-101610209D01*
X183690000Y-101586412D01*
X183784973Y-101470687D01*
X183855545Y-101338658D01*
X183899002Y-101195397D01*
X183909999Y-101083744D01*
X183909999Y-101083736D01*
X183913675Y-101046411D01*
X183909999Y-101009086D01*
X183909999Y-96664587D01*
X184136589Y-96815990D01*
X184406842Y-96927932D01*
X184693740Y-96985000D01*
X184986260Y-96985000D01*
X185273158Y-96927932D01*
X185543411Y-96815990D01*
X185786632Y-96653475D01*
X185993475Y-96446632D01*
X186110000Y-96272240D01*
X186226525Y-96446632D01*
X186433368Y-96653475D01*
X186676589Y-96815990D01*
X186946842Y-96927932D01*
X187233740Y-96985000D01*
X187526260Y-96985000D01*
X187813158Y-96927932D01*
X188083411Y-96815990D01*
X188326632Y-96653475D01*
X188533475Y-96446632D01*
X188655195Y-96264466D01*
X188724822Y-96381355D01*
X188919731Y-96597588D01*
X189153080Y-96771641D01*
X189415901Y-96896825D01*
X189563110Y-96941476D01*
X189793000Y-96820155D01*
X189793000Y-95627000D01*
X189773000Y-95627000D01*
X189773000Y-95373000D01*
X189793000Y-95373000D01*
X189793000Y-95353000D01*
X190047000Y-95353000D01*
X190047000Y-95373000D01*
X190067000Y-95373000D01*
X190067000Y-95627000D01*
X190047000Y-95627000D01*
X190047000Y-96820155D01*
X190276890Y-96941476D01*
X190424099Y-96896825D01*
X190686920Y-96771641D01*
X190920269Y-96597588D01*
X191115178Y-96381355D01*
X191184805Y-96264466D01*
X191306525Y-96446632D01*
X191513368Y-96653475D01*
X191756589Y-96815990D01*
X192026842Y-96927932D01*
X192313740Y-96985000D01*
X192606260Y-96985000D01*
X192893158Y-96927932D01*
X193163411Y-96815990D01*
X193406632Y-96653475D01*
X193538487Y-96521620D01*
X193560498Y-96594180D01*
X193619463Y-96704494D01*
X193698815Y-96801185D01*
X193795506Y-96880537D01*
X193905820Y-96939502D01*
X194025518Y-96975812D01*
X194150000Y-96988072D01*
X195850000Y-96988072D01*
X195974482Y-96975812D01*
X196094180Y-96939502D01*
X196204494Y-96880537D01*
X196301185Y-96801185D01*
X196380537Y-96704494D01*
X196439502Y-96594180D01*
X196475812Y-96474482D01*
X196488072Y-96350000D01*
X196488072Y-94650000D01*
X196475812Y-94525518D01*
X196439502Y-94405820D01*
X196380537Y-94295506D01*
X196335036Y-94240063D01*
X197772175Y-94233732D01*
X197603368Y-94346525D01*
G36*
X220727000Y-102793000D02*
G01*
X220747000Y-102793000D01*
X220747000Y-103047000D01*
X220727000Y-103047000D01*
X220727000Y-103067000D01*
X220473000Y-103067000D01*
X220473000Y-103047000D01*
X220453000Y-103047000D01*
X220453000Y-102793000D01*
X220473000Y-102793000D01*
X220473000Y-102773000D01*
X220727000Y-102773000D01*
X220727000Y-102793000D01*
G37*
X220727000Y-102793000D02*
X220747000Y-102793000D01*
X220747000Y-103047000D01*
X220727000Y-103047000D01*
X220727000Y-103067000D01*
X220473000Y-103067000D01*
X220473000Y-103047000D01*
X220453000Y-103047000D01*
X220453000Y-102793000D01*
X220473000Y-102793000D01*
X220473000Y-102773000D01*
X220727000Y-102773000D01*
X220727000Y-102793000D01*
G36*
X177927000Y-100553000D02*
G01*
X177947000Y-100553000D01*
X177947000Y-100807000D01*
X177927000Y-100807000D01*
X177927000Y-100827000D01*
X177673000Y-100827000D01*
X177673000Y-100807000D01*
X177653000Y-100807000D01*
X177653000Y-100553000D01*
X177673000Y-100553000D01*
X177673000Y-100533000D01*
X177927000Y-100533000D01*
X177927000Y-100553000D01*
G37*
X177927000Y-100553000D02*
X177947000Y-100553000D01*
X177947000Y-100807000D01*
X177927000Y-100807000D01*
X177927000Y-100827000D01*
X177673000Y-100827000D01*
X177673000Y-100807000D01*
X177653000Y-100807000D01*
X177653000Y-100553000D01*
X177673000Y-100553000D01*
X177673000Y-100533000D01*
X177927000Y-100533000D01*
X177927000Y-100553000D01*
G36*
X181593748Y-98885858D02*
G01*
X181579605Y-98900000D01*
X181593748Y-98914143D01*
X181414143Y-99093748D01*
X181400000Y-99079605D01*
X181385858Y-99093748D01*
X181206253Y-98914143D01*
X181220395Y-98900000D01*
X181206253Y-98885858D01*
X181385858Y-98706253D01*
X181400000Y-98720395D01*
X181414143Y-98706253D01*
X181593748Y-98885858D01*
G37*
X181593748Y-98885858D02*
X181579605Y-98900000D01*
X181593748Y-98914143D01*
X181414143Y-99093748D01*
X181400000Y-99079605D01*
X181385858Y-99093748D01*
X181206253Y-98914143D01*
X181220395Y-98900000D01*
X181206253Y-98885858D01*
X181385858Y-98706253D01*
X181400000Y-98720395D01*
X181414143Y-98706253D01*
X181593748Y-98885858D01*
M02*
