G04 #@! TF.GenerationSoftware,KiCad,Pcbnew,(5.1.5)-3*
G04 #@! TF.CreationDate,2020-05-01T16:20:29+02:00*
G04 #@! TF.ProjectId,Arduino_Uno_R3_From_Scratch,41726475-696e-46f5-9f55-6e6f5f52335f,rev?*
G04 #@! TF.SameCoordinates,Original*
G04 #@! TF.FileFunction,Paste,Top*
G04 #@! TF.FilePolarity,Positive*
%FSLAX46Y46*%
G04 Gerber Fmt 4.6, Leading zero omitted, Abs format (unit mm)*
G04 Created by KiCad (PCBNEW (5.1.5)-3) date 2020-05-01 16:20:29*
%MOMM*%
%LPD*%
G04 APERTURE LIST*
%ADD10C,0.100000*%
%ADD11R,2.235200X1.219200*%
%ADD12R,2.200000X3.600000*%
%ADD13R,0.550000X1.500000*%
%ADD14R,1.500000X0.550000*%
%ADD15R,3.000000X4.900000*%
%ADD16R,10.000000X5.000000*%
G04 APERTURE END LIST*
D10*
G36*
X212924505Y-98501204D02*
G01*
X212948773Y-98504804D01*
X212972572Y-98510765D01*
X212995671Y-98519030D01*
X213017850Y-98529520D01*
X213038893Y-98542132D01*
X213058599Y-98556747D01*
X213076777Y-98573223D01*
X213093253Y-98591401D01*
X213107868Y-98611107D01*
X213120480Y-98632150D01*
X213130970Y-98654329D01*
X213139235Y-98677428D01*
X213145196Y-98701227D01*
X213148796Y-98725495D01*
X213150000Y-98749999D01*
X213150000Y-99650001D01*
X213148796Y-99674505D01*
X213145196Y-99698773D01*
X213139235Y-99722572D01*
X213130970Y-99745671D01*
X213120480Y-99767850D01*
X213107868Y-99788893D01*
X213093253Y-99808599D01*
X213076777Y-99826777D01*
X213058599Y-99843253D01*
X213038893Y-99857868D01*
X213017850Y-99870480D01*
X212995671Y-99880970D01*
X212972572Y-99889235D01*
X212948773Y-99895196D01*
X212924505Y-99898796D01*
X212900001Y-99900000D01*
X212249999Y-99900000D01*
X212225495Y-99898796D01*
X212201227Y-99895196D01*
X212177428Y-99889235D01*
X212154329Y-99880970D01*
X212132150Y-99870480D01*
X212111107Y-99857868D01*
X212091401Y-99843253D01*
X212073223Y-99826777D01*
X212056747Y-99808599D01*
X212042132Y-99788893D01*
X212029520Y-99767850D01*
X212019030Y-99745671D01*
X212010765Y-99722572D01*
X212004804Y-99698773D01*
X212001204Y-99674505D01*
X212000000Y-99650001D01*
X212000000Y-98749999D01*
X212001204Y-98725495D01*
X212004804Y-98701227D01*
X212010765Y-98677428D01*
X212019030Y-98654329D01*
X212029520Y-98632150D01*
X212042132Y-98611107D01*
X212056747Y-98591401D01*
X212073223Y-98573223D01*
X212091401Y-98556747D01*
X212111107Y-98542132D01*
X212132150Y-98529520D01*
X212154329Y-98519030D01*
X212177428Y-98510765D01*
X212201227Y-98504804D01*
X212225495Y-98501204D01*
X212249999Y-98500000D01*
X212900001Y-98500000D01*
X212924505Y-98501204D01*
G37*
G36*
X214974505Y-98501204D02*
G01*
X214998773Y-98504804D01*
X215022572Y-98510765D01*
X215045671Y-98519030D01*
X215067850Y-98529520D01*
X215088893Y-98542132D01*
X215108599Y-98556747D01*
X215126777Y-98573223D01*
X215143253Y-98591401D01*
X215157868Y-98611107D01*
X215170480Y-98632150D01*
X215180970Y-98654329D01*
X215189235Y-98677428D01*
X215195196Y-98701227D01*
X215198796Y-98725495D01*
X215200000Y-98749999D01*
X215200000Y-99650001D01*
X215198796Y-99674505D01*
X215195196Y-99698773D01*
X215189235Y-99722572D01*
X215180970Y-99745671D01*
X215170480Y-99767850D01*
X215157868Y-99788893D01*
X215143253Y-99808599D01*
X215126777Y-99826777D01*
X215108599Y-99843253D01*
X215088893Y-99857868D01*
X215067850Y-99870480D01*
X215045671Y-99880970D01*
X215022572Y-99889235D01*
X214998773Y-99895196D01*
X214974505Y-99898796D01*
X214950001Y-99900000D01*
X214299999Y-99900000D01*
X214275495Y-99898796D01*
X214251227Y-99895196D01*
X214227428Y-99889235D01*
X214204329Y-99880970D01*
X214182150Y-99870480D01*
X214161107Y-99857868D01*
X214141401Y-99843253D01*
X214123223Y-99826777D01*
X214106747Y-99808599D01*
X214092132Y-99788893D01*
X214079520Y-99767850D01*
X214069030Y-99745671D01*
X214060765Y-99722572D01*
X214054804Y-99698773D01*
X214051204Y-99674505D01*
X214050000Y-99650001D01*
X214050000Y-98749999D01*
X214051204Y-98725495D01*
X214054804Y-98701227D01*
X214060765Y-98677428D01*
X214069030Y-98654329D01*
X214079520Y-98632150D01*
X214092132Y-98611107D01*
X214106747Y-98591401D01*
X214123223Y-98573223D01*
X214141401Y-98556747D01*
X214161107Y-98542132D01*
X214182150Y-98529520D01*
X214204329Y-98519030D01*
X214227428Y-98510765D01*
X214251227Y-98504804D01*
X214275495Y-98501204D01*
X214299999Y-98500000D01*
X214950001Y-98500000D01*
X214974505Y-98501204D01*
G37*
D11*
X210901200Y-109288600D03*
X210901200Y-111600000D03*
X210901200Y-113911400D03*
D12*
X217099000Y-111600000D03*
D10*
G36*
X212624504Y-103401204D02*
G01*
X212648773Y-103404804D01*
X212672571Y-103410765D01*
X212695671Y-103419030D01*
X212717849Y-103429520D01*
X212738893Y-103442133D01*
X212758598Y-103456747D01*
X212776777Y-103473223D01*
X212793253Y-103491402D01*
X212807867Y-103511107D01*
X212820480Y-103532151D01*
X212830970Y-103554329D01*
X212839235Y-103577429D01*
X212845196Y-103601227D01*
X212848796Y-103625496D01*
X212850000Y-103650000D01*
X212850000Y-104750000D01*
X212848796Y-104774504D01*
X212845196Y-104798773D01*
X212839235Y-104822571D01*
X212830970Y-104845671D01*
X212820480Y-104867849D01*
X212807867Y-104888893D01*
X212793253Y-104908598D01*
X212776777Y-104926777D01*
X212758598Y-104943253D01*
X212738893Y-104957867D01*
X212717849Y-104970480D01*
X212695671Y-104980970D01*
X212672571Y-104989235D01*
X212648773Y-104995196D01*
X212624504Y-104998796D01*
X212600000Y-105000000D01*
X209600000Y-105000000D01*
X209575496Y-104998796D01*
X209551227Y-104995196D01*
X209527429Y-104989235D01*
X209504329Y-104980970D01*
X209482151Y-104970480D01*
X209461107Y-104957867D01*
X209441402Y-104943253D01*
X209423223Y-104926777D01*
X209406747Y-104908598D01*
X209392133Y-104888893D01*
X209379520Y-104867849D01*
X209369030Y-104845671D01*
X209360765Y-104822571D01*
X209354804Y-104798773D01*
X209351204Y-104774504D01*
X209350000Y-104750000D01*
X209350000Y-103650000D01*
X209351204Y-103625496D01*
X209354804Y-103601227D01*
X209360765Y-103577429D01*
X209369030Y-103554329D01*
X209379520Y-103532151D01*
X209392133Y-103511107D01*
X209406747Y-103491402D01*
X209423223Y-103473223D01*
X209441402Y-103456747D01*
X209461107Y-103442133D01*
X209482151Y-103429520D01*
X209504329Y-103419030D01*
X209527429Y-103410765D01*
X209551227Y-103404804D01*
X209575496Y-103401204D01*
X209600000Y-103400000D01*
X212600000Y-103400000D01*
X212624504Y-103401204D01*
G37*
G36*
X218024504Y-103401204D02*
G01*
X218048773Y-103404804D01*
X218072571Y-103410765D01*
X218095671Y-103419030D01*
X218117849Y-103429520D01*
X218138893Y-103442133D01*
X218158598Y-103456747D01*
X218176777Y-103473223D01*
X218193253Y-103491402D01*
X218207867Y-103511107D01*
X218220480Y-103532151D01*
X218230970Y-103554329D01*
X218239235Y-103577429D01*
X218245196Y-103601227D01*
X218248796Y-103625496D01*
X218250000Y-103650000D01*
X218250000Y-104750000D01*
X218248796Y-104774504D01*
X218245196Y-104798773D01*
X218239235Y-104822571D01*
X218230970Y-104845671D01*
X218220480Y-104867849D01*
X218207867Y-104888893D01*
X218193253Y-104908598D01*
X218176777Y-104926777D01*
X218158598Y-104943253D01*
X218138893Y-104957867D01*
X218117849Y-104970480D01*
X218095671Y-104980970D01*
X218072571Y-104989235D01*
X218048773Y-104995196D01*
X218024504Y-104998796D01*
X218000000Y-105000000D01*
X215000000Y-105000000D01*
X214975496Y-104998796D01*
X214951227Y-104995196D01*
X214927429Y-104989235D01*
X214904329Y-104980970D01*
X214882151Y-104970480D01*
X214861107Y-104957867D01*
X214841402Y-104943253D01*
X214823223Y-104926777D01*
X214806747Y-104908598D01*
X214792133Y-104888893D01*
X214779520Y-104867849D01*
X214769030Y-104845671D01*
X214760765Y-104822571D01*
X214754804Y-104798773D01*
X214751204Y-104774504D01*
X214750000Y-104750000D01*
X214750000Y-103650000D01*
X214751204Y-103625496D01*
X214754804Y-103601227D01*
X214760765Y-103577429D01*
X214769030Y-103554329D01*
X214779520Y-103532151D01*
X214792133Y-103511107D01*
X214806747Y-103491402D01*
X214823223Y-103473223D01*
X214841402Y-103456747D01*
X214861107Y-103442133D01*
X214882151Y-103429520D01*
X214904329Y-103419030D01*
X214927429Y-103410765D01*
X214951227Y-103404804D01*
X214975496Y-103401204D01*
X215000000Y-103400000D01*
X218000000Y-103400000D01*
X218024504Y-103401204D01*
G37*
G36*
X217424504Y-117801204D02*
G01*
X217448773Y-117804804D01*
X217472571Y-117810765D01*
X217495671Y-117819030D01*
X217517849Y-117829520D01*
X217538893Y-117842133D01*
X217558598Y-117856747D01*
X217576777Y-117873223D01*
X217593253Y-117891402D01*
X217607867Y-117911107D01*
X217620480Y-117932151D01*
X217630970Y-117954329D01*
X217639235Y-117977429D01*
X217645196Y-118001227D01*
X217648796Y-118025496D01*
X217650000Y-118050000D01*
X217650000Y-119150000D01*
X217648796Y-119174504D01*
X217645196Y-119198773D01*
X217639235Y-119222571D01*
X217630970Y-119245671D01*
X217620480Y-119267849D01*
X217607867Y-119288893D01*
X217593253Y-119308598D01*
X217576777Y-119326777D01*
X217558598Y-119343253D01*
X217538893Y-119357867D01*
X217517849Y-119370480D01*
X217495671Y-119380970D01*
X217472571Y-119389235D01*
X217448773Y-119395196D01*
X217424504Y-119398796D01*
X217400000Y-119400000D01*
X214400000Y-119400000D01*
X214375496Y-119398796D01*
X214351227Y-119395196D01*
X214327429Y-119389235D01*
X214304329Y-119380970D01*
X214282151Y-119370480D01*
X214261107Y-119357867D01*
X214241402Y-119343253D01*
X214223223Y-119326777D01*
X214206747Y-119308598D01*
X214192133Y-119288893D01*
X214179520Y-119267849D01*
X214169030Y-119245671D01*
X214160765Y-119222571D01*
X214154804Y-119198773D01*
X214151204Y-119174504D01*
X214150000Y-119150000D01*
X214150000Y-118050000D01*
X214151204Y-118025496D01*
X214154804Y-118001227D01*
X214160765Y-117977429D01*
X214169030Y-117954329D01*
X214179520Y-117932151D01*
X214192133Y-117911107D01*
X214206747Y-117891402D01*
X214223223Y-117873223D01*
X214241402Y-117856747D01*
X214261107Y-117842133D01*
X214282151Y-117829520D01*
X214304329Y-117819030D01*
X214327429Y-117810765D01*
X214351227Y-117804804D01*
X214375496Y-117801204D01*
X214400000Y-117800000D01*
X217400000Y-117800000D01*
X217424504Y-117801204D01*
G37*
G36*
X212024504Y-117801204D02*
G01*
X212048773Y-117804804D01*
X212072571Y-117810765D01*
X212095671Y-117819030D01*
X212117849Y-117829520D01*
X212138893Y-117842133D01*
X212158598Y-117856747D01*
X212176777Y-117873223D01*
X212193253Y-117891402D01*
X212207867Y-117911107D01*
X212220480Y-117932151D01*
X212230970Y-117954329D01*
X212239235Y-117977429D01*
X212245196Y-118001227D01*
X212248796Y-118025496D01*
X212250000Y-118050000D01*
X212250000Y-119150000D01*
X212248796Y-119174504D01*
X212245196Y-119198773D01*
X212239235Y-119222571D01*
X212230970Y-119245671D01*
X212220480Y-119267849D01*
X212207867Y-119288893D01*
X212193253Y-119308598D01*
X212176777Y-119326777D01*
X212158598Y-119343253D01*
X212138893Y-119357867D01*
X212117849Y-119370480D01*
X212095671Y-119380970D01*
X212072571Y-119389235D01*
X212048773Y-119395196D01*
X212024504Y-119398796D01*
X212000000Y-119400000D01*
X209000000Y-119400000D01*
X208975496Y-119398796D01*
X208951227Y-119395196D01*
X208927429Y-119389235D01*
X208904329Y-119380970D01*
X208882151Y-119370480D01*
X208861107Y-119357867D01*
X208841402Y-119343253D01*
X208823223Y-119326777D01*
X208806747Y-119308598D01*
X208792133Y-119288893D01*
X208779520Y-119267849D01*
X208769030Y-119245671D01*
X208760765Y-119222571D01*
X208754804Y-119198773D01*
X208751204Y-119174504D01*
X208750000Y-119150000D01*
X208750000Y-118050000D01*
X208751204Y-118025496D01*
X208754804Y-118001227D01*
X208760765Y-117977429D01*
X208769030Y-117954329D01*
X208779520Y-117932151D01*
X208792133Y-117911107D01*
X208806747Y-117891402D01*
X208823223Y-117873223D01*
X208841402Y-117856747D01*
X208861107Y-117842133D01*
X208882151Y-117829520D01*
X208904329Y-117819030D01*
X208927429Y-117810765D01*
X208951227Y-117804804D01*
X208975496Y-117801204D01*
X209000000Y-117800000D01*
X212000000Y-117800000D01*
X212024504Y-117801204D01*
G37*
G36*
X207774505Y-112951204D02*
G01*
X207798773Y-112954804D01*
X207822572Y-112960765D01*
X207845671Y-112969030D01*
X207867850Y-112979520D01*
X207888893Y-112992132D01*
X207908599Y-113006747D01*
X207926777Y-113023223D01*
X207943253Y-113041401D01*
X207957868Y-113061107D01*
X207970480Y-113082150D01*
X207980970Y-113104329D01*
X207989235Y-113127428D01*
X207995196Y-113151227D01*
X207998796Y-113175495D01*
X208000000Y-113199999D01*
X208000000Y-113850001D01*
X207998796Y-113874505D01*
X207995196Y-113898773D01*
X207989235Y-113922572D01*
X207980970Y-113945671D01*
X207970480Y-113967850D01*
X207957868Y-113988893D01*
X207943253Y-114008599D01*
X207926777Y-114026777D01*
X207908599Y-114043253D01*
X207888893Y-114057868D01*
X207867850Y-114070480D01*
X207845671Y-114080970D01*
X207822572Y-114089235D01*
X207798773Y-114095196D01*
X207774505Y-114098796D01*
X207750001Y-114100000D01*
X206849999Y-114100000D01*
X206825495Y-114098796D01*
X206801227Y-114095196D01*
X206777428Y-114089235D01*
X206754329Y-114080970D01*
X206732150Y-114070480D01*
X206711107Y-114057868D01*
X206691401Y-114043253D01*
X206673223Y-114026777D01*
X206656747Y-114008599D01*
X206642132Y-113988893D01*
X206629520Y-113967850D01*
X206619030Y-113945671D01*
X206610765Y-113922572D01*
X206604804Y-113898773D01*
X206601204Y-113874505D01*
X206600000Y-113850001D01*
X206600000Y-113199999D01*
X206601204Y-113175495D01*
X206604804Y-113151227D01*
X206610765Y-113127428D01*
X206619030Y-113104329D01*
X206629520Y-113082150D01*
X206642132Y-113061107D01*
X206656747Y-113041401D01*
X206673223Y-113023223D01*
X206691401Y-113006747D01*
X206711107Y-112992132D01*
X206732150Y-112979520D01*
X206754329Y-112969030D01*
X206777428Y-112960765D01*
X206801227Y-112954804D01*
X206825495Y-112951204D01*
X206849999Y-112950000D01*
X207750001Y-112950000D01*
X207774505Y-112951204D01*
G37*
G36*
X207774505Y-110901204D02*
G01*
X207798773Y-110904804D01*
X207822572Y-110910765D01*
X207845671Y-110919030D01*
X207867850Y-110929520D01*
X207888893Y-110942132D01*
X207908599Y-110956747D01*
X207926777Y-110973223D01*
X207943253Y-110991401D01*
X207957868Y-111011107D01*
X207970480Y-111032150D01*
X207980970Y-111054329D01*
X207989235Y-111077428D01*
X207995196Y-111101227D01*
X207998796Y-111125495D01*
X208000000Y-111149999D01*
X208000000Y-111800001D01*
X207998796Y-111824505D01*
X207995196Y-111848773D01*
X207989235Y-111872572D01*
X207980970Y-111895671D01*
X207970480Y-111917850D01*
X207957868Y-111938893D01*
X207943253Y-111958599D01*
X207926777Y-111976777D01*
X207908599Y-111993253D01*
X207888893Y-112007868D01*
X207867850Y-112020480D01*
X207845671Y-112030970D01*
X207822572Y-112039235D01*
X207798773Y-112045196D01*
X207774505Y-112048796D01*
X207750001Y-112050000D01*
X206849999Y-112050000D01*
X206825495Y-112048796D01*
X206801227Y-112045196D01*
X206777428Y-112039235D01*
X206754329Y-112030970D01*
X206732150Y-112020480D01*
X206711107Y-112007868D01*
X206691401Y-111993253D01*
X206673223Y-111976777D01*
X206656747Y-111958599D01*
X206642132Y-111938893D01*
X206629520Y-111917850D01*
X206619030Y-111895671D01*
X206610765Y-111872572D01*
X206604804Y-111848773D01*
X206601204Y-111824505D01*
X206600000Y-111800001D01*
X206600000Y-111149999D01*
X206601204Y-111125495D01*
X206604804Y-111101227D01*
X206610765Y-111077428D01*
X206619030Y-111054329D01*
X206629520Y-111032150D01*
X206642132Y-111011107D01*
X206656747Y-110991401D01*
X206673223Y-110973223D01*
X206691401Y-110956747D01*
X206711107Y-110942132D01*
X206732150Y-110929520D01*
X206754329Y-110919030D01*
X206777428Y-110910765D01*
X206801227Y-110904804D01*
X206825495Y-110901204D01*
X206849999Y-110900000D01*
X207750001Y-110900000D01*
X207774505Y-110901204D01*
G37*
G36*
X207774505Y-103926204D02*
G01*
X207798773Y-103929804D01*
X207822572Y-103935765D01*
X207845671Y-103944030D01*
X207867850Y-103954520D01*
X207888893Y-103967132D01*
X207908599Y-103981747D01*
X207926777Y-103998223D01*
X207943253Y-104016401D01*
X207957868Y-104036107D01*
X207970480Y-104057150D01*
X207980970Y-104079329D01*
X207989235Y-104102428D01*
X207995196Y-104126227D01*
X207998796Y-104150495D01*
X208000000Y-104174999D01*
X208000000Y-104825001D01*
X207998796Y-104849505D01*
X207995196Y-104873773D01*
X207989235Y-104897572D01*
X207980970Y-104920671D01*
X207970480Y-104942850D01*
X207957868Y-104963893D01*
X207943253Y-104983599D01*
X207926777Y-105001777D01*
X207908599Y-105018253D01*
X207888893Y-105032868D01*
X207867850Y-105045480D01*
X207845671Y-105055970D01*
X207822572Y-105064235D01*
X207798773Y-105070196D01*
X207774505Y-105073796D01*
X207750001Y-105075000D01*
X206849999Y-105075000D01*
X206825495Y-105073796D01*
X206801227Y-105070196D01*
X206777428Y-105064235D01*
X206754329Y-105055970D01*
X206732150Y-105045480D01*
X206711107Y-105032868D01*
X206691401Y-105018253D01*
X206673223Y-105001777D01*
X206656747Y-104983599D01*
X206642132Y-104963893D01*
X206629520Y-104942850D01*
X206619030Y-104920671D01*
X206610765Y-104897572D01*
X206604804Y-104873773D01*
X206601204Y-104849505D01*
X206600000Y-104825001D01*
X206600000Y-104174999D01*
X206601204Y-104150495D01*
X206604804Y-104126227D01*
X206610765Y-104102428D01*
X206619030Y-104079329D01*
X206629520Y-104057150D01*
X206642132Y-104036107D01*
X206656747Y-104016401D01*
X206673223Y-103998223D01*
X206691401Y-103981747D01*
X206711107Y-103967132D01*
X206732150Y-103954520D01*
X206754329Y-103944030D01*
X206777428Y-103935765D01*
X206801227Y-103929804D01*
X206825495Y-103926204D01*
X206849999Y-103925000D01*
X207750001Y-103925000D01*
X207774505Y-103926204D01*
G37*
G36*
X207774505Y-101876204D02*
G01*
X207798773Y-101879804D01*
X207822572Y-101885765D01*
X207845671Y-101894030D01*
X207867850Y-101904520D01*
X207888893Y-101917132D01*
X207908599Y-101931747D01*
X207926777Y-101948223D01*
X207943253Y-101966401D01*
X207957868Y-101986107D01*
X207970480Y-102007150D01*
X207980970Y-102029329D01*
X207989235Y-102052428D01*
X207995196Y-102076227D01*
X207998796Y-102100495D01*
X208000000Y-102124999D01*
X208000000Y-102775001D01*
X207998796Y-102799505D01*
X207995196Y-102823773D01*
X207989235Y-102847572D01*
X207980970Y-102870671D01*
X207970480Y-102892850D01*
X207957868Y-102913893D01*
X207943253Y-102933599D01*
X207926777Y-102951777D01*
X207908599Y-102968253D01*
X207888893Y-102982868D01*
X207867850Y-102995480D01*
X207845671Y-103005970D01*
X207822572Y-103014235D01*
X207798773Y-103020196D01*
X207774505Y-103023796D01*
X207750001Y-103025000D01*
X206849999Y-103025000D01*
X206825495Y-103023796D01*
X206801227Y-103020196D01*
X206777428Y-103014235D01*
X206754329Y-103005970D01*
X206732150Y-102995480D01*
X206711107Y-102982868D01*
X206691401Y-102968253D01*
X206673223Y-102951777D01*
X206656747Y-102933599D01*
X206642132Y-102913893D01*
X206629520Y-102892850D01*
X206619030Y-102870671D01*
X206610765Y-102847572D01*
X206604804Y-102823773D01*
X206601204Y-102799505D01*
X206600000Y-102775001D01*
X206600000Y-102124999D01*
X206601204Y-102100495D01*
X206604804Y-102076227D01*
X206610765Y-102052428D01*
X206619030Y-102029329D01*
X206629520Y-102007150D01*
X206642132Y-101986107D01*
X206656747Y-101966401D01*
X206673223Y-101948223D01*
X206691401Y-101931747D01*
X206711107Y-101917132D01*
X206732150Y-101904520D01*
X206754329Y-101894030D01*
X206777428Y-101885765D01*
X206801227Y-101879804D01*
X206825495Y-101876204D01*
X206849999Y-101875000D01*
X207750001Y-101875000D01*
X207774505Y-101876204D01*
G37*
G36*
X197174505Y-114101204D02*
G01*
X197198773Y-114104804D01*
X197222572Y-114110765D01*
X197245671Y-114119030D01*
X197267850Y-114129520D01*
X197288893Y-114142132D01*
X197308599Y-114156747D01*
X197326777Y-114173223D01*
X197343253Y-114191401D01*
X197357868Y-114211107D01*
X197370480Y-114232150D01*
X197380970Y-114254329D01*
X197389235Y-114277428D01*
X197395196Y-114301227D01*
X197398796Y-114325495D01*
X197400000Y-114349999D01*
X197400000Y-115250001D01*
X197398796Y-115274505D01*
X197395196Y-115298773D01*
X197389235Y-115322572D01*
X197380970Y-115345671D01*
X197370480Y-115367850D01*
X197357868Y-115388893D01*
X197343253Y-115408599D01*
X197326777Y-115426777D01*
X197308599Y-115443253D01*
X197288893Y-115457868D01*
X197267850Y-115470480D01*
X197245671Y-115480970D01*
X197222572Y-115489235D01*
X197198773Y-115495196D01*
X197174505Y-115498796D01*
X197150001Y-115500000D01*
X196499999Y-115500000D01*
X196475495Y-115498796D01*
X196451227Y-115495196D01*
X196427428Y-115489235D01*
X196404329Y-115480970D01*
X196382150Y-115470480D01*
X196361107Y-115457868D01*
X196341401Y-115443253D01*
X196323223Y-115426777D01*
X196306747Y-115408599D01*
X196292132Y-115388893D01*
X196279520Y-115367850D01*
X196269030Y-115345671D01*
X196260765Y-115322572D01*
X196254804Y-115298773D01*
X196251204Y-115274505D01*
X196250000Y-115250001D01*
X196250000Y-114349999D01*
X196251204Y-114325495D01*
X196254804Y-114301227D01*
X196260765Y-114277428D01*
X196269030Y-114254329D01*
X196279520Y-114232150D01*
X196292132Y-114211107D01*
X196306747Y-114191401D01*
X196323223Y-114173223D01*
X196341401Y-114156747D01*
X196361107Y-114142132D01*
X196382150Y-114129520D01*
X196404329Y-114119030D01*
X196427428Y-114110765D01*
X196451227Y-114104804D01*
X196475495Y-114101204D01*
X196499999Y-114100000D01*
X197150001Y-114100000D01*
X197174505Y-114101204D01*
G37*
G36*
X195124505Y-114101204D02*
G01*
X195148773Y-114104804D01*
X195172572Y-114110765D01*
X195195671Y-114119030D01*
X195217850Y-114129520D01*
X195238893Y-114142132D01*
X195258599Y-114156747D01*
X195276777Y-114173223D01*
X195293253Y-114191401D01*
X195307868Y-114211107D01*
X195320480Y-114232150D01*
X195330970Y-114254329D01*
X195339235Y-114277428D01*
X195345196Y-114301227D01*
X195348796Y-114325495D01*
X195350000Y-114349999D01*
X195350000Y-115250001D01*
X195348796Y-115274505D01*
X195345196Y-115298773D01*
X195339235Y-115322572D01*
X195330970Y-115345671D01*
X195320480Y-115367850D01*
X195307868Y-115388893D01*
X195293253Y-115408599D01*
X195276777Y-115426777D01*
X195258599Y-115443253D01*
X195238893Y-115457868D01*
X195217850Y-115470480D01*
X195195671Y-115480970D01*
X195172572Y-115489235D01*
X195148773Y-115495196D01*
X195124505Y-115498796D01*
X195100001Y-115500000D01*
X194449999Y-115500000D01*
X194425495Y-115498796D01*
X194401227Y-115495196D01*
X194377428Y-115489235D01*
X194354329Y-115480970D01*
X194332150Y-115470480D01*
X194311107Y-115457868D01*
X194291401Y-115443253D01*
X194273223Y-115426777D01*
X194256747Y-115408599D01*
X194242132Y-115388893D01*
X194229520Y-115367850D01*
X194219030Y-115345671D01*
X194210765Y-115322572D01*
X194204804Y-115298773D01*
X194201204Y-115274505D01*
X194200000Y-115250001D01*
X194200000Y-114349999D01*
X194201204Y-114325495D01*
X194204804Y-114301227D01*
X194210765Y-114277428D01*
X194219030Y-114254329D01*
X194229520Y-114232150D01*
X194242132Y-114211107D01*
X194256747Y-114191401D01*
X194273223Y-114173223D01*
X194291401Y-114156747D01*
X194311107Y-114142132D01*
X194332150Y-114129520D01*
X194354329Y-114119030D01*
X194377428Y-114110765D01*
X194401227Y-114104804D01*
X194425495Y-114101204D01*
X194449999Y-114100000D01*
X195100001Y-114100000D01*
X195124505Y-114101204D01*
G37*
G36*
X204174505Y-114901204D02*
G01*
X204198773Y-114904804D01*
X204222572Y-114910765D01*
X204245671Y-114919030D01*
X204267850Y-114929520D01*
X204288893Y-114942132D01*
X204308599Y-114956747D01*
X204326777Y-114973223D01*
X204343253Y-114991401D01*
X204357868Y-115011107D01*
X204370480Y-115032150D01*
X204380970Y-115054329D01*
X204389235Y-115077428D01*
X204395196Y-115101227D01*
X204398796Y-115125495D01*
X204400000Y-115149999D01*
X204400000Y-116050001D01*
X204398796Y-116074505D01*
X204395196Y-116098773D01*
X204389235Y-116122572D01*
X204380970Y-116145671D01*
X204370480Y-116167850D01*
X204357868Y-116188893D01*
X204343253Y-116208599D01*
X204326777Y-116226777D01*
X204308599Y-116243253D01*
X204288893Y-116257868D01*
X204267850Y-116270480D01*
X204245671Y-116280970D01*
X204222572Y-116289235D01*
X204198773Y-116295196D01*
X204174505Y-116298796D01*
X204150001Y-116300000D01*
X203499999Y-116300000D01*
X203475495Y-116298796D01*
X203451227Y-116295196D01*
X203427428Y-116289235D01*
X203404329Y-116280970D01*
X203382150Y-116270480D01*
X203361107Y-116257868D01*
X203341401Y-116243253D01*
X203323223Y-116226777D01*
X203306747Y-116208599D01*
X203292132Y-116188893D01*
X203279520Y-116167850D01*
X203269030Y-116145671D01*
X203260765Y-116122572D01*
X203254804Y-116098773D01*
X203251204Y-116074505D01*
X203250000Y-116050001D01*
X203250000Y-115149999D01*
X203251204Y-115125495D01*
X203254804Y-115101227D01*
X203260765Y-115077428D01*
X203269030Y-115054329D01*
X203279520Y-115032150D01*
X203292132Y-115011107D01*
X203306747Y-114991401D01*
X203323223Y-114973223D01*
X203341401Y-114956747D01*
X203361107Y-114942132D01*
X203382150Y-114929520D01*
X203404329Y-114919030D01*
X203427428Y-114910765D01*
X203451227Y-114904804D01*
X203475495Y-114901204D01*
X203499999Y-114900000D01*
X204150001Y-114900000D01*
X204174505Y-114901204D01*
G37*
G36*
X202124505Y-114901204D02*
G01*
X202148773Y-114904804D01*
X202172572Y-114910765D01*
X202195671Y-114919030D01*
X202217850Y-114929520D01*
X202238893Y-114942132D01*
X202258599Y-114956747D01*
X202276777Y-114973223D01*
X202293253Y-114991401D01*
X202307868Y-115011107D01*
X202320480Y-115032150D01*
X202330970Y-115054329D01*
X202339235Y-115077428D01*
X202345196Y-115101227D01*
X202348796Y-115125495D01*
X202350000Y-115149999D01*
X202350000Y-116050001D01*
X202348796Y-116074505D01*
X202345196Y-116098773D01*
X202339235Y-116122572D01*
X202330970Y-116145671D01*
X202320480Y-116167850D01*
X202307868Y-116188893D01*
X202293253Y-116208599D01*
X202276777Y-116226777D01*
X202258599Y-116243253D01*
X202238893Y-116257868D01*
X202217850Y-116270480D01*
X202195671Y-116280970D01*
X202172572Y-116289235D01*
X202148773Y-116295196D01*
X202124505Y-116298796D01*
X202100001Y-116300000D01*
X201449999Y-116300000D01*
X201425495Y-116298796D01*
X201401227Y-116295196D01*
X201377428Y-116289235D01*
X201354329Y-116280970D01*
X201332150Y-116270480D01*
X201311107Y-116257868D01*
X201291401Y-116243253D01*
X201273223Y-116226777D01*
X201256747Y-116208599D01*
X201242132Y-116188893D01*
X201229520Y-116167850D01*
X201219030Y-116145671D01*
X201210765Y-116122572D01*
X201204804Y-116098773D01*
X201201204Y-116074505D01*
X201200000Y-116050001D01*
X201200000Y-115149999D01*
X201201204Y-115125495D01*
X201204804Y-115101227D01*
X201210765Y-115077428D01*
X201219030Y-115054329D01*
X201229520Y-115032150D01*
X201242132Y-115011107D01*
X201256747Y-114991401D01*
X201273223Y-114973223D01*
X201291401Y-114956747D01*
X201311107Y-114942132D01*
X201332150Y-114929520D01*
X201354329Y-114919030D01*
X201377428Y-114910765D01*
X201401227Y-114904804D01*
X201425495Y-114901204D01*
X201449999Y-114900000D01*
X202100001Y-114900000D01*
X202124505Y-114901204D01*
G37*
G36*
X183474505Y-119051204D02*
G01*
X183498773Y-119054804D01*
X183522572Y-119060765D01*
X183545671Y-119069030D01*
X183567850Y-119079520D01*
X183588893Y-119092132D01*
X183608599Y-119106747D01*
X183626777Y-119123223D01*
X183643253Y-119141401D01*
X183657868Y-119161107D01*
X183670480Y-119182150D01*
X183680970Y-119204329D01*
X183689235Y-119227428D01*
X183695196Y-119251227D01*
X183698796Y-119275495D01*
X183700000Y-119299999D01*
X183700000Y-119950001D01*
X183698796Y-119974505D01*
X183695196Y-119998773D01*
X183689235Y-120022572D01*
X183680970Y-120045671D01*
X183670480Y-120067850D01*
X183657868Y-120088893D01*
X183643253Y-120108599D01*
X183626777Y-120126777D01*
X183608599Y-120143253D01*
X183588893Y-120157868D01*
X183567850Y-120170480D01*
X183545671Y-120180970D01*
X183522572Y-120189235D01*
X183498773Y-120195196D01*
X183474505Y-120198796D01*
X183450001Y-120200000D01*
X182549999Y-120200000D01*
X182525495Y-120198796D01*
X182501227Y-120195196D01*
X182477428Y-120189235D01*
X182454329Y-120180970D01*
X182432150Y-120170480D01*
X182411107Y-120157868D01*
X182391401Y-120143253D01*
X182373223Y-120126777D01*
X182356747Y-120108599D01*
X182342132Y-120088893D01*
X182329520Y-120067850D01*
X182319030Y-120045671D01*
X182310765Y-120022572D01*
X182304804Y-119998773D01*
X182301204Y-119974505D01*
X182300000Y-119950001D01*
X182300000Y-119299999D01*
X182301204Y-119275495D01*
X182304804Y-119251227D01*
X182310765Y-119227428D01*
X182319030Y-119204329D01*
X182329520Y-119182150D01*
X182342132Y-119161107D01*
X182356747Y-119141401D01*
X182373223Y-119123223D01*
X182391401Y-119106747D01*
X182411107Y-119092132D01*
X182432150Y-119079520D01*
X182454329Y-119069030D01*
X182477428Y-119060765D01*
X182501227Y-119054804D01*
X182525495Y-119051204D01*
X182549999Y-119050000D01*
X183450001Y-119050000D01*
X183474505Y-119051204D01*
G37*
G36*
X183474505Y-117001204D02*
G01*
X183498773Y-117004804D01*
X183522572Y-117010765D01*
X183545671Y-117019030D01*
X183567850Y-117029520D01*
X183588893Y-117042132D01*
X183608599Y-117056747D01*
X183626777Y-117073223D01*
X183643253Y-117091401D01*
X183657868Y-117111107D01*
X183670480Y-117132150D01*
X183680970Y-117154329D01*
X183689235Y-117177428D01*
X183695196Y-117201227D01*
X183698796Y-117225495D01*
X183700000Y-117249999D01*
X183700000Y-117900001D01*
X183698796Y-117924505D01*
X183695196Y-117948773D01*
X183689235Y-117972572D01*
X183680970Y-117995671D01*
X183670480Y-118017850D01*
X183657868Y-118038893D01*
X183643253Y-118058599D01*
X183626777Y-118076777D01*
X183608599Y-118093253D01*
X183588893Y-118107868D01*
X183567850Y-118120480D01*
X183545671Y-118130970D01*
X183522572Y-118139235D01*
X183498773Y-118145196D01*
X183474505Y-118148796D01*
X183450001Y-118150000D01*
X182549999Y-118150000D01*
X182525495Y-118148796D01*
X182501227Y-118145196D01*
X182477428Y-118139235D01*
X182454329Y-118130970D01*
X182432150Y-118120480D01*
X182411107Y-118107868D01*
X182391401Y-118093253D01*
X182373223Y-118076777D01*
X182356747Y-118058599D01*
X182342132Y-118038893D01*
X182329520Y-118017850D01*
X182319030Y-117995671D01*
X182310765Y-117972572D01*
X182304804Y-117948773D01*
X182301204Y-117924505D01*
X182300000Y-117900001D01*
X182300000Y-117249999D01*
X182301204Y-117225495D01*
X182304804Y-117201227D01*
X182310765Y-117177428D01*
X182319030Y-117154329D01*
X182329520Y-117132150D01*
X182342132Y-117111107D01*
X182356747Y-117091401D01*
X182373223Y-117073223D01*
X182391401Y-117056747D01*
X182411107Y-117042132D01*
X182432150Y-117029520D01*
X182454329Y-117019030D01*
X182477428Y-117010765D01*
X182501227Y-117004804D01*
X182525495Y-117001204D01*
X182549999Y-117000000D01*
X183450001Y-117000000D01*
X183474505Y-117001204D01*
G37*
G36*
X185874505Y-117001204D02*
G01*
X185898773Y-117004804D01*
X185922572Y-117010765D01*
X185945671Y-117019030D01*
X185967850Y-117029520D01*
X185988893Y-117042132D01*
X186008599Y-117056747D01*
X186026777Y-117073223D01*
X186043253Y-117091401D01*
X186057868Y-117111107D01*
X186070480Y-117132150D01*
X186080970Y-117154329D01*
X186089235Y-117177428D01*
X186095196Y-117201227D01*
X186098796Y-117225495D01*
X186100000Y-117249999D01*
X186100000Y-117900001D01*
X186098796Y-117924505D01*
X186095196Y-117948773D01*
X186089235Y-117972572D01*
X186080970Y-117995671D01*
X186070480Y-118017850D01*
X186057868Y-118038893D01*
X186043253Y-118058599D01*
X186026777Y-118076777D01*
X186008599Y-118093253D01*
X185988893Y-118107868D01*
X185967850Y-118120480D01*
X185945671Y-118130970D01*
X185922572Y-118139235D01*
X185898773Y-118145196D01*
X185874505Y-118148796D01*
X185850001Y-118150000D01*
X184949999Y-118150000D01*
X184925495Y-118148796D01*
X184901227Y-118145196D01*
X184877428Y-118139235D01*
X184854329Y-118130970D01*
X184832150Y-118120480D01*
X184811107Y-118107868D01*
X184791401Y-118093253D01*
X184773223Y-118076777D01*
X184756747Y-118058599D01*
X184742132Y-118038893D01*
X184729520Y-118017850D01*
X184719030Y-117995671D01*
X184710765Y-117972572D01*
X184704804Y-117948773D01*
X184701204Y-117924505D01*
X184700000Y-117900001D01*
X184700000Y-117249999D01*
X184701204Y-117225495D01*
X184704804Y-117201227D01*
X184710765Y-117177428D01*
X184719030Y-117154329D01*
X184729520Y-117132150D01*
X184742132Y-117111107D01*
X184756747Y-117091401D01*
X184773223Y-117073223D01*
X184791401Y-117056747D01*
X184811107Y-117042132D01*
X184832150Y-117029520D01*
X184854329Y-117019030D01*
X184877428Y-117010765D01*
X184901227Y-117004804D01*
X184925495Y-117001204D01*
X184949999Y-117000000D01*
X185850001Y-117000000D01*
X185874505Y-117001204D01*
G37*
G36*
X185874505Y-119051204D02*
G01*
X185898773Y-119054804D01*
X185922572Y-119060765D01*
X185945671Y-119069030D01*
X185967850Y-119079520D01*
X185988893Y-119092132D01*
X186008599Y-119106747D01*
X186026777Y-119123223D01*
X186043253Y-119141401D01*
X186057868Y-119161107D01*
X186070480Y-119182150D01*
X186080970Y-119204329D01*
X186089235Y-119227428D01*
X186095196Y-119251227D01*
X186098796Y-119275495D01*
X186100000Y-119299999D01*
X186100000Y-119950001D01*
X186098796Y-119974505D01*
X186095196Y-119998773D01*
X186089235Y-120022572D01*
X186080970Y-120045671D01*
X186070480Y-120067850D01*
X186057868Y-120088893D01*
X186043253Y-120108599D01*
X186026777Y-120126777D01*
X186008599Y-120143253D01*
X185988893Y-120157868D01*
X185967850Y-120170480D01*
X185945671Y-120180970D01*
X185922572Y-120189235D01*
X185898773Y-120195196D01*
X185874505Y-120198796D01*
X185850001Y-120200000D01*
X184949999Y-120200000D01*
X184925495Y-120198796D01*
X184901227Y-120195196D01*
X184877428Y-120189235D01*
X184854329Y-120180970D01*
X184832150Y-120170480D01*
X184811107Y-120157868D01*
X184791401Y-120143253D01*
X184773223Y-120126777D01*
X184756747Y-120108599D01*
X184742132Y-120088893D01*
X184729520Y-120067850D01*
X184719030Y-120045671D01*
X184710765Y-120022572D01*
X184704804Y-119998773D01*
X184701204Y-119974505D01*
X184700000Y-119950001D01*
X184700000Y-119299999D01*
X184701204Y-119275495D01*
X184704804Y-119251227D01*
X184710765Y-119227428D01*
X184719030Y-119204329D01*
X184729520Y-119182150D01*
X184742132Y-119161107D01*
X184756747Y-119141401D01*
X184773223Y-119123223D01*
X184791401Y-119106747D01*
X184811107Y-119092132D01*
X184832150Y-119079520D01*
X184854329Y-119069030D01*
X184877428Y-119060765D01*
X184901227Y-119054804D01*
X184925495Y-119051204D01*
X184949999Y-119050000D01*
X185850001Y-119050000D01*
X185874505Y-119051204D01*
G37*
G36*
X201949505Y-97901204D02*
G01*
X201973773Y-97904804D01*
X201997572Y-97910765D01*
X202020671Y-97919030D01*
X202042850Y-97929520D01*
X202063893Y-97942132D01*
X202083599Y-97956747D01*
X202101777Y-97973223D01*
X202118253Y-97991401D01*
X202132868Y-98011107D01*
X202145480Y-98032150D01*
X202155970Y-98054329D01*
X202164235Y-98077428D01*
X202170196Y-98101227D01*
X202173796Y-98125495D01*
X202175000Y-98149999D01*
X202175000Y-99050001D01*
X202173796Y-99074505D01*
X202170196Y-99098773D01*
X202164235Y-99122572D01*
X202155970Y-99145671D01*
X202145480Y-99167850D01*
X202132868Y-99188893D01*
X202118253Y-99208599D01*
X202101777Y-99226777D01*
X202083599Y-99243253D01*
X202063893Y-99257868D01*
X202042850Y-99270480D01*
X202020671Y-99280970D01*
X201997572Y-99289235D01*
X201973773Y-99295196D01*
X201949505Y-99298796D01*
X201925001Y-99300000D01*
X201274999Y-99300000D01*
X201250495Y-99298796D01*
X201226227Y-99295196D01*
X201202428Y-99289235D01*
X201179329Y-99280970D01*
X201157150Y-99270480D01*
X201136107Y-99257868D01*
X201116401Y-99243253D01*
X201098223Y-99226777D01*
X201081747Y-99208599D01*
X201067132Y-99188893D01*
X201054520Y-99167850D01*
X201044030Y-99145671D01*
X201035765Y-99122572D01*
X201029804Y-99098773D01*
X201026204Y-99074505D01*
X201025000Y-99050001D01*
X201025000Y-98149999D01*
X201026204Y-98125495D01*
X201029804Y-98101227D01*
X201035765Y-98077428D01*
X201044030Y-98054329D01*
X201054520Y-98032150D01*
X201067132Y-98011107D01*
X201081747Y-97991401D01*
X201098223Y-97973223D01*
X201116401Y-97956747D01*
X201136107Y-97942132D01*
X201157150Y-97929520D01*
X201179329Y-97919030D01*
X201202428Y-97910765D01*
X201226227Y-97904804D01*
X201250495Y-97901204D01*
X201274999Y-97900000D01*
X201925001Y-97900000D01*
X201949505Y-97901204D01*
G37*
G36*
X199899505Y-97901204D02*
G01*
X199923773Y-97904804D01*
X199947572Y-97910765D01*
X199970671Y-97919030D01*
X199992850Y-97929520D01*
X200013893Y-97942132D01*
X200033599Y-97956747D01*
X200051777Y-97973223D01*
X200068253Y-97991401D01*
X200082868Y-98011107D01*
X200095480Y-98032150D01*
X200105970Y-98054329D01*
X200114235Y-98077428D01*
X200120196Y-98101227D01*
X200123796Y-98125495D01*
X200125000Y-98149999D01*
X200125000Y-99050001D01*
X200123796Y-99074505D01*
X200120196Y-99098773D01*
X200114235Y-99122572D01*
X200105970Y-99145671D01*
X200095480Y-99167850D01*
X200082868Y-99188893D01*
X200068253Y-99208599D01*
X200051777Y-99226777D01*
X200033599Y-99243253D01*
X200013893Y-99257868D01*
X199992850Y-99270480D01*
X199970671Y-99280970D01*
X199947572Y-99289235D01*
X199923773Y-99295196D01*
X199899505Y-99298796D01*
X199875001Y-99300000D01*
X199224999Y-99300000D01*
X199200495Y-99298796D01*
X199176227Y-99295196D01*
X199152428Y-99289235D01*
X199129329Y-99280970D01*
X199107150Y-99270480D01*
X199086107Y-99257868D01*
X199066401Y-99243253D01*
X199048223Y-99226777D01*
X199031747Y-99208599D01*
X199017132Y-99188893D01*
X199004520Y-99167850D01*
X198994030Y-99145671D01*
X198985765Y-99122572D01*
X198979804Y-99098773D01*
X198976204Y-99074505D01*
X198975000Y-99050001D01*
X198975000Y-98149999D01*
X198976204Y-98125495D01*
X198979804Y-98101227D01*
X198985765Y-98077428D01*
X198994030Y-98054329D01*
X199004520Y-98032150D01*
X199017132Y-98011107D01*
X199031747Y-97991401D01*
X199048223Y-97973223D01*
X199066401Y-97956747D01*
X199086107Y-97942132D01*
X199107150Y-97929520D01*
X199129329Y-97919030D01*
X199152428Y-97910765D01*
X199176227Y-97904804D01*
X199200495Y-97901204D01*
X199224999Y-97900000D01*
X199875001Y-97900000D01*
X199899505Y-97901204D01*
G37*
G36*
X207774505Y-106401204D02*
G01*
X207798773Y-106404804D01*
X207822572Y-106410765D01*
X207845671Y-106419030D01*
X207867850Y-106429520D01*
X207888893Y-106442132D01*
X207908599Y-106456747D01*
X207926777Y-106473223D01*
X207943253Y-106491401D01*
X207957868Y-106511107D01*
X207970480Y-106532150D01*
X207980970Y-106554329D01*
X207989235Y-106577428D01*
X207995196Y-106601227D01*
X207998796Y-106625495D01*
X208000000Y-106649999D01*
X208000000Y-107300001D01*
X207998796Y-107324505D01*
X207995196Y-107348773D01*
X207989235Y-107372572D01*
X207980970Y-107395671D01*
X207970480Y-107417850D01*
X207957868Y-107438893D01*
X207943253Y-107458599D01*
X207926777Y-107476777D01*
X207908599Y-107493253D01*
X207888893Y-107507868D01*
X207867850Y-107520480D01*
X207845671Y-107530970D01*
X207822572Y-107539235D01*
X207798773Y-107545196D01*
X207774505Y-107548796D01*
X207750001Y-107550000D01*
X206849999Y-107550000D01*
X206825495Y-107548796D01*
X206801227Y-107545196D01*
X206777428Y-107539235D01*
X206754329Y-107530970D01*
X206732150Y-107520480D01*
X206711107Y-107507868D01*
X206691401Y-107493253D01*
X206673223Y-107476777D01*
X206656747Y-107458599D01*
X206642132Y-107438893D01*
X206629520Y-107417850D01*
X206619030Y-107395671D01*
X206610765Y-107372572D01*
X206604804Y-107348773D01*
X206601204Y-107324505D01*
X206600000Y-107300001D01*
X206600000Y-106649999D01*
X206601204Y-106625495D01*
X206604804Y-106601227D01*
X206610765Y-106577428D01*
X206619030Y-106554329D01*
X206629520Y-106532150D01*
X206642132Y-106511107D01*
X206656747Y-106491401D01*
X206673223Y-106473223D01*
X206691401Y-106456747D01*
X206711107Y-106442132D01*
X206732150Y-106429520D01*
X206754329Y-106419030D01*
X206777428Y-106410765D01*
X206801227Y-106404804D01*
X206825495Y-106401204D01*
X206849999Y-106400000D01*
X207750001Y-106400000D01*
X207774505Y-106401204D01*
G37*
G36*
X207774505Y-108451204D02*
G01*
X207798773Y-108454804D01*
X207822572Y-108460765D01*
X207845671Y-108469030D01*
X207867850Y-108479520D01*
X207888893Y-108492132D01*
X207908599Y-108506747D01*
X207926777Y-108523223D01*
X207943253Y-108541401D01*
X207957868Y-108561107D01*
X207970480Y-108582150D01*
X207980970Y-108604329D01*
X207989235Y-108627428D01*
X207995196Y-108651227D01*
X207998796Y-108675495D01*
X208000000Y-108699999D01*
X208000000Y-109350001D01*
X207998796Y-109374505D01*
X207995196Y-109398773D01*
X207989235Y-109422572D01*
X207980970Y-109445671D01*
X207970480Y-109467850D01*
X207957868Y-109488893D01*
X207943253Y-109508599D01*
X207926777Y-109526777D01*
X207908599Y-109543253D01*
X207888893Y-109557868D01*
X207867850Y-109570480D01*
X207845671Y-109580970D01*
X207822572Y-109589235D01*
X207798773Y-109595196D01*
X207774505Y-109598796D01*
X207750001Y-109600000D01*
X206849999Y-109600000D01*
X206825495Y-109598796D01*
X206801227Y-109595196D01*
X206777428Y-109589235D01*
X206754329Y-109580970D01*
X206732150Y-109570480D01*
X206711107Y-109557868D01*
X206691401Y-109543253D01*
X206673223Y-109526777D01*
X206656747Y-109508599D01*
X206642132Y-109488893D01*
X206629520Y-109467850D01*
X206619030Y-109445671D01*
X206610765Y-109422572D01*
X206604804Y-109398773D01*
X206601204Y-109374505D01*
X206600000Y-109350001D01*
X206600000Y-108699999D01*
X206601204Y-108675495D01*
X206604804Y-108651227D01*
X206610765Y-108627428D01*
X206619030Y-108604329D01*
X206629520Y-108582150D01*
X206642132Y-108561107D01*
X206656747Y-108541401D01*
X206673223Y-108523223D01*
X206691401Y-108506747D01*
X206711107Y-108492132D01*
X206732150Y-108479520D01*
X206754329Y-108469030D01*
X206777428Y-108460765D01*
X206801227Y-108454804D01*
X206825495Y-108451204D01*
X206849999Y-108450000D01*
X207750001Y-108450000D01*
X207774505Y-108451204D01*
G37*
G36*
X183474505Y-115076204D02*
G01*
X183498773Y-115079804D01*
X183522572Y-115085765D01*
X183545671Y-115094030D01*
X183567850Y-115104520D01*
X183588893Y-115117132D01*
X183608599Y-115131747D01*
X183626777Y-115148223D01*
X183643253Y-115166401D01*
X183657868Y-115186107D01*
X183670480Y-115207150D01*
X183680970Y-115229329D01*
X183689235Y-115252428D01*
X183695196Y-115276227D01*
X183698796Y-115300495D01*
X183700000Y-115324999D01*
X183700000Y-115975001D01*
X183698796Y-115999505D01*
X183695196Y-116023773D01*
X183689235Y-116047572D01*
X183680970Y-116070671D01*
X183670480Y-116092850D01*
X183657868Y-116113893D01*
X183643253Y-116133599D01*
X183626777Y-116151777D01*
X183608599Y-116168253D01*
X183588893Y-116182868D01*
X183567850Y-116195480D01*
X183545671Y-116205970D01*
X183522572Y-116214235D01*
X183498773Y-116220196D01*
X183474505Y-116223796D01*
X183450001Y-116225000D01*
X182549999Y-116225000D01*
X182525495Y-116223796D01*
X182501227Y-116220196D01*
X182477428Y-116214235D01*
X182454329Y-116205970D01*
X182432150Y-116195480D01*
X182411107Y-116182868D01*
X182391401Y-116168253D01*
X182373223Y-116151777D01*
X182356747Y-116133599D01*
X182342132Y-116113893D01*
X182329520Y-116092850D01*
X182319030Y-116070671D01*
X182310765Y-116047572D01*
X182304804Y-116023773D01*
X182301204Y-115999505D01*
X182300000Y-115975001D01*
X182300000Y-115324999D01*
X182301204Y-115300495D01*
X182304804Y-115276227D01*
X182310765Y-115252428D01*
X182319030Y-115229329D01*
X182329520Y-115207150D01*
X182342132Y-115186107D01*
X182356747Y-115166401D01*
X182373223Y-115148223D01*
X182391401Y-115131747D01*
X182411107Y-115117132D01*
X182432150Y-115104520D01*
X182454329Y-115094030D01*
X182477428Y-115085765D01*
X182501227Y-115079804D01*
X182525495Y-115076204D01*
X182549999Y-115075000D01*
X183450001Y-115075000D01*
X183474505Y-115076204D01*
G37*
G36*
X183474505Y-113026204D02*
G01*
X183498773Y-113029804D01*
X183522572Y-113035765D01*
X183545671Y-113044030D01*
X183567850Y-113054520D01*
X183588893Y-113067132D01*
X183608599Y-113081747D01*
X183626777Y-113098223D01*
X183643253Y-113116401D01*
X183657868Y-113136107D01*
X183670480Y-113157150D01*
X183680970Y-113179329D01*
X183689235Y-113202428D01*
X183695196Y-113226227D01*
X183698796Y-113250495D01*
X183700000Y-113274999D01*
X183700000Y-113925001D01*
X183698796Y-113949505D01*
X183695196Y-113973773D01*
X183689235Y-113997572D01*
X183680970Y-114020671D01*
X183670480Y-114042850D01*
X183657868Y-114063893D01*
X183643253Y-114083599D01*
X183626777Y-114101777D01*
X183608599Y-114118253D01*
X183588893Y-114132868D01*
X183567850Y-114145480D01*
X183545671Y-114155970D01*
X183522572Y-114164235D01*
X183498773Y-114170196D01*
X183474505Y-114173796D01*
X183450001Y-114175000D01*
X182549999Y-114175000D01*
X182525495Y-114173796D01*
X182501227Y-114170196D01*
X182477428Y-114164235D01*
X182454329Y-114155970D01*
X182432150Y-114145480D01*
X182411107Y-114132868D01*
X182391401Y-114118253D01*
X182373223Y-114101777D01*
X182356747Y-114083599D01*
X182342132Y-114063893D01*
X182329520Y-114042850D01*
X182319030Y-114020671D01*
X182310765Y-113997572D01*
X182304804Y-113973773D01*
X182301204Y-113949505D01*
X182300000Y-113925001D01*
X182300000Y-113274999D01*
X182301204Y-113250495D01*
X182304804Y-113226227D01*
X182310765Y-113202428D01*
X182319030Y-113179329D01*
X182329520Y-113157150D01*
X182342132Y-113136107D01*
X182356747Y-113116401D01*
X182373223Y-113098223D01*
X182391401Y-113081747D01*
X182411107Y-113067132D01*
X182432150Y-113054520D01*
X182454329Y-113044030D01*
X182477428Y-113035765D01*
X182501227Y-113029804D01*
X182525495Y-113026204D01*
X182549999Y-113025000D01*
X183450001Y-113025000D01*
X183474505Y-113026204D01*
G37*
G36*
X185874505Y-113001204D02*
G01*
X185898773Y-113004804D01*
X185922572Y-113010765D01*
X185945671Y-113019030D01*
X185967850Y-113029520D01*
X185988893Y-113042132D01*
X186008599Y-113056747D01*
X186026777Y-113073223D01*
X186043253Y-113091401D01*
X186057868Y-113111107D01*
X186070480Y-113132150D01*
X186080970Y-113154329D01*
X186089235Y-113177428D01*
X186095196Y-113201227D01*
X186098796Y-113225495D01*
X186100000Y-113249999D01*
X186100000Y-113900001D01*
X186098796Y-113924505D01*
X186095196Y-113948773D01*
X186089235Y-113972572D01*
X186080970Y-113995671D01*
X186070480Y-114017850D01*
X186057868Y-114038893D01*
X186043253Y-114058599D01*
X186026777Y-114076777D01*
X186008599Y-114093253D01*
X185988893Y-114107868D01*
X185967850Y-114120480D01*
X185945671Y-114130970D01*
X185922572Y-114139235D01*
X185898773Y-114145196D01*
X185874505Y-114148796D01*
X185850001Y-114150000D01*
X184949999Y-114150000D01*
X184925495Y-114148796D01*
X184901227Y-114145196D01*
X184877428Y-114139235D01*
X184854329Y-114130970D01*
X184832150Y-114120480D01*
X184811107Y-114107868D01*
X184791401Y-114093253D01*
X184773223Y-114076777D01*
X184756747Y-114058599D01*
X184742132Y-114038893D01*
X184729520Y-114017850D01*
X184719030Y-113995671D01*
X184710765Y-113972572D01*
X184704804Y-113948773D01*
X184701204Y-113924505D01*
X184700000Y-113900001D01*
X184700000Y-113249999D01*
X184701204Y-113225495D01*
X184704804Y-113201227D01*
X184710765Y-113177428D01*
X184719030Y-113154329D01*
X184729520Y-113132150D01*
X184742132Y-113111107D01*
X184756747Y-113091401D01*
X184773223Y-113073223D01*
X184791401Y-113056747D01*
X184811107Y-113042132D01*
X184832150Y-113029520D01*
X184854329Y-113019030D01*
X184877428Y-113010765D01*
X184901227Y-113004804D01*
X184925495Y-113001204D01*
X184949999Y-113000000D01*
X185850001Y-113000000D01*
X185874505Y-113001204D01*
G37*
G36*
X185874505Y-115051204D02*
G01*
X185898773Y-115054804D01*
X185922572Y-115060765D01*
X185945671Y-115069030D01*
X185967850Y-115079520D01*
X185988893Y-115092132D01*
X186008599Y-115106747D01*
X186026777Y-115123223D01*
X186043253Y-115141401D01*
X186057868Y-115161107D01*
X186070480Y-115182150D01*
X186080970Y-115204329D01*
X186089235Y-115227428D01*
X186095196Y-115251227D01*
X186098796Y-115275495D01*
X186100000Y-115299999D01*
X186100000Y-115950001D01*
X186098796Y-115974505D01*
X186095196Y-115998773D01*
X186089235Y-116022572D01*
X186080970Y-116045671D01*
X186070480Y-116067850D01*
X186057868Y-116088893D01*
X186043253Y-116108599D01*
X186026777Y-116126777D01*
X186008599Y-116143253D01*
X185988893Y-116157868D01*
X185967850Y-116170480D01*
X185945671Y-116180970D01*
X185922572Y-116189235D01*
X185898773Y-116195196D01*
X185874505Y-116198796D01*
X185850001Y-116200000D01*
X184949999Y-116200000D01*
X184925495Y-116198796D01*
X184901227Y-116195196D01*
X184877428Y-116189235D01*
X184854329Y-116180970D01*
X184832150Y-116170480D01*
X184811107Y-116157868D01*
X184791401Y-116143253D01*
X184773223Y-116126777D01*
X184756747Y-116108599D01*
X184742132Y-116088893D01*
X184729520Y-116067850D01*
X184719030Y-116045671D01*
X184710765Y-116022572D01*
X184704804Y-115998773D01*
X184701204Y-115974505D01*
X184700000Y-115950001D01*
X184700000Y-115299999D01*
X184701204Y-115275495D01*
X184704804Y-115251227D01*
X184710765Y-115227428D01*
X184719030Y-115204329D01*
X184729520Y-115182150D01*
X184742132Y-115161107D01*
X184756747Y-115141401D01*
X184773223Y-115123223D01*
X184791401Y-115106747D01*
X184811107Y-115092132D01*
X184832150Y-115079520D01*
X184854329Y-115069030D01*
X184877428Y-115060765D01*
X184901227Y-115054804D01*
X184925495Y-115051204D01*
X184949999Y-115050000D01*
X185850001Y-115050000D01*
X185874505Y-115051204D01*
G37*
G36*
X197974505Y-97901204D02*
G01*
X197998773Y-97904804D01*
X198022572Y-97910765D01*
X198045671Y-97919030D01*
X198067850Y-97929520D01*
X198088893Y-97942132D01*
X198108599Y-97956747D01*
X198126777Y-97973223D01*
X198143253Y-97991401D01*
X198157868Y-98011107D01*
X198170480Y-98032150D01*
X198180970Y-98054329D01*
X198189235Y-98077428D01*
X198195196Y-98101227D01*
X198198796Y-98125495D01*
X198200000Y-98149999D01*
X198200000Y-99050001D01*
X198198796Y-99074505D01*
X198195196Y-99098773D01*
X198189235Y-99122572D01*
X198180970Y-99145671D01*
X198170480Y-99167850D01*
X198157868Y-99188893D01*
X198143253Y-99208599D01*
X198126777Y-99226777D01*
X198108599Y-99243253D01*
X198088893Y-99257868D01*
X198067850Y-99270480D01*
X198045671Y-99280970D01*
X198022572Y-99289235D01*
X197998773Y-99295196D01*
X197974505Y-99298796D01*
X197950001Y-99300000D01*
X197299999Y-99300000D01*
X197275495Y-99298796D01*
X197251227Y-99295196D01*
X197227428Y-99289235D01*
X197204329Y-99280970D01*
X197182150Y-99270480D01*
X197161107Y-99257868D01*
X197141401Y-99243253D01*
X197123223Y-99226777D01*
X197106747Y-99208599D01*
X197092132Y-99188893D01*
X197079520Y-99167850D01*
X197069030Y-99145671D01*
X197060765Y-99122572D01*
X197054804Y-99098773D01*
X197051204Y-99074505D01*
X197050000Y-99050001D01*
X197050000Y-98149999D01*
X197051204Y-98125495D01*
X197054804Y-98101227D01*
X197060765Y-98077428D01*
X197069030Y-98054329D01*
X197079520Y-98032150D01*
X197092132Y-98011107D01*
X197106747Y-97991401D01*
X197123223Y-97973223D01*
X197141401Y-97956747D01*
X197161107Y-97942132D01*
X197182150Y-97929520D01*
X197204329Y-97919030D01*
X197227428Y-97910765D01*
X197251227Y-97904804D01*
X197275495Y-97901204D01*
X197299999Y-97900000D01*
X197950001Y-97900000D01*
X197974505Y-97901204D01*
G37*
G36*
X195924505Y-97901204D02*
G01*
X195948773Y-97904804D01*
X195972572Y-97910765D01*
X195995671Y-97919030D01*
X196017850Y-97929520D01*
X196038893Y-97942132D01*
X196058599Y-97956747D01*
X196076777Y-97973223D01*
X196093253Y-97991401D01*
X196107868Y-98011107D01*
X196120480Y-98032150D01*
X196130970Y-98054329D01*
X196139235Y-98077428D01*
X196145196Y-98101227D01*
X196148796Y-98125495D01*
X196150000Y-98149999D01*
X196150000Y-99050001D01*
X196148796Y-99074505D01*
X196145196Y-99098773D01*
X196139235Y-99122572D01*
X196130970Y-99145671D01*
X196120480Y-99167850D01*
X196107868Y-99188893D01*
X196093253Y-99208599D01*
X196076777Y-99226777D01*
X196058599Y-99243253D01*
X196038893Y-99257868D01*
X196017850Y-99270480D01*
X195995671Y-99280970D01*
X195972572Y-99289235D01*
X195948773Y-99295196D01*
X195924505Y-99298796D01*
X195900001Y-99300000D01*
X195249999Y-99300000D01*
X195225495Y-99298796D01*
X195201227Y-99295196D01*
X195177428Y-99289235D01*
X195154329Y-99280970D01*
X195132150Y-99270480D01*
X195111107Y-99257868D01*
X195091401Y-99243253D01*
X195073223Y-99226777D01*
X195056747Y-99208599D01*
X195042132Y-99188893D01*
X195029520Y-99167850D01*
X195019030Y-99145671D01*
X195010765Y-99122572D01*
X195004804Y-99098773D01*
X195001204Y-99074505D01*
X195000000Y-99050001D01*
X195000000Y-98149999D01*
X195001204Y-98125495D01*
X195004804Y-98101227D01*
X195010765Y-98077428D01*
X195019030Y-98054329D01*
X195029520Y-98032150D01*
X195042132Y-98011107D01*
X195056747Y-97991401D01*
X195073223Y-97973223D01*
X195091401Y-97956747D01*
X195111107Y-97942132D01*
X195132150Y-97929520D01*
X195154329Y-97919030D01*
X195177428Y-97910765D01*
X195201227Y-97904804D01*
X195225495Y-97901204D01*
X195249999Y-97900000D01*
X195900001Y-97900000D01*
X195924505Y-97901204D01*
G37*
G36*
X206174505Y-97901204D02*
G01*
X206198773Y-97904804D01*
X206222572Y-97910765D01*
X206245671Y-97919030D01*
X206267850Y-97929520D01*
X206288893Y-97942132D01*
X206308599Y-97956747D01*
X206326777Y-97973223D01*
X206343253Y-97991401D01*
X206357868Y-98011107D01*
X206370480Y-98032150D01*
X206380970Y-98054329D01*
X206389235Y-98077428D01*
X206395196Y-98101227D01*
X206398796Y-98125495D01*
X206400000Y-98149999D01*
X206400000Y-99050001D01*
X206398796Y-99074505D01*
X206395196Y-99098773D01*
X206389235Y-99122572D01*
X206380970Y-99145671D01*
X206370480Y-99167850D01*
X206357868Y-99188893D01*
X206343253Y-99208599D01*
X206326777Y-99226777D01*
X206308599Y-99243253D01*
X206288893Y-99257868D01*
X206267850Y-99270480D01*
X206245671Y-99280970D01*
X206222572Y-99289235D01*
X206198773Y-99295196D01*
X206174505Y-99298796D01*
X206150001Y-99300000D01*
X205499999Y-99300000D01*
X205475495Y-99298796D01*
X205451227Y-99295196D01*
X205427428Y-99289235D01*
X205404329Y-99280970D01*
X205382150Y-99270480D01*
X205361107Y-99257868D01*
X205341401Y-99243253D01*
X205323223Y-99226777D01*
X205306747Y-99208599D01*
X205292132Y-99188893D01*
X205279520Y-99167850D01*
X205269030Y-99145671D01*
X205260765Y-99122572D01*
X205254804Y-99098773D01*
X205251204Y-99074505D01*
X205250000Y-99050001D01*
X205250000Y-98149999D01*
X205251204Y-98125495D01*
X205254804Y-98101227D01*
X205260765Y-98077428D01*
X205269030Y-98054329D01*
X205279520Y-98032150D01*
X205292132Y-98011107D01*
X205306747Y-97991401D01*
X205323223Y-97973223D01*
X205341401Y-97956747D01*
X205361107Y-97942132D01*
X205382150Y-97929520D01*
X205404329Y-97919030D01*
X205427428Y-97910765D01*
X205451227Y-97904804D01*
X205475495Y-97901204D01*
X205499999Y-97900000D01*
X206150001Y-97900000D01*
X206174505Y-97901204D01*
G37*
G36*
X204124505Y-97901204D02*
G01*
X204148773Y-97904804D01*
X204172572Y-97910765D01*
X204195671Y-97919030D01*
X204217850Y-97929520D01*
X204238893Y-97942132D01*
X204258599Y-97956747D01*
X204276777Y-97973223D01*
X204293253Y-97991401D01*
X204307868Y-98011107D01*
X204320480Y-98032150D01*
X204330970Y-98054329D01*
X204339235Y-98077428D01*
X204345196Y-98101227D01*
X204348796Y-98125495D01*
X204350000Y-98149999D01*
X204350000Y-99050001D01*
X204348796Y-99074505D01*
X204345196Y-99098773D01*
X204339235Y-99122572D01*
X204330970Y-99145671D01*
X204320480Y-99167850D01*
X204307868Y-99188893D01*
X204293253Y-99208599D01*
X204276777Y-99226777D01*
X204258599Y-99243253D01*
X204238893Y-99257868D01*
X204217850Y-99270480D01*
X204195671Y-99280970D01*
X204172572Y-99289235D01*
X204148773Y-99295196D01*
X204124505Y-99298796D01*
X204100001Y-99300000D01*
X203449999Y-99300000D01*
X203425495Y-99298796D01*
X203401227Y-99295196D01*
X203377428Y-99289235D01*
X203354329Y-99280970D01*
X203332150Y-99270480D01*
X203311107Y-99257868D01*
X203291401Y-99243253D01*
X203273223Y-99226777D01*
X203256747Y-99208599D01*
X203242132Y-99188893D01*
X203229520Y-99167850D01*
X203219030Y-99145671D01*
X203210765Y-99122572D01*
X203204804Y-99098773D01*
X203201204Y-99074505D01*
X203200000Y-99050001D01*
X203200000Y-98149999D01*
X203201204Y-98125495D01*
X203204804Y-98101227D01*
X203210765Y-98077428D01*
X203219030Y-98054329D01*
X203229520Y-98032150D01*
X203242132Y-98011107D01*
X203256747Y-97991401D01*
X203273223Y-97973223D01*
X203291401Y-97956747D01*
X203311107Y-97942132D01*
X203332150Y-97929520D01*
X203354329Y-97919030D01*
X203377428Y-97910765D01*
X203401227Y-97904804D01*
X203425495Y-97901204D01*
X203449999Y-97900000D01*
X204100001Y-97900000D01*
X204124505Y-97901204D01*
G37*
D13*
X196800000Y-103700000D03*
X196000000Y-103700000D03*
X195200000Y-103700000D03*
X194400000Y-103700000D03*
X193600000Y-103700000D03*
X192800000Y-103700000D03*
X192000000Y-103700000D03*
X191200000Y-103700000D03*
D14*
X189700000Y-105200000D03*
X189700000Y-106000000D03*
X189700000Y-106800000D03*
X189700000Y-107600000D03*
X189700000Y-108400000D03*
X189700000Y-109200000D03*
X189700000Y-110000000D03*
X189700000Y-110800000D03*
D13*
X191200000Y-112300000D03*
X192000000Y-112300000D03*
X192800000Y-112300000D03*
X193600000Y-112300000D03*
X194400000Y-112300000D03*
X195200000Y-112300000D03*
X196000000Y-112300000D03*
X196800000Y-112300000D03*
D14*
X198300000Y-110800000D03*
X198300000Y-110000000D03*
X198300000Y-109200000D03*
X198300000Y-108400000D03*
X198300000Y-107600000D03*
X198300000Y-106800000D03*
X198300000Y-106000000D03*
X198300000Y-105200000D03*
D15*
X203300000Y-111650000D03*
X203300000Y-104350000D03*
D16*
X203000000Y-120200000D03*
X191800000Y-120200000D03*
M02*
