M48
; DRILL file {KiCad (5.1.5)-3} date 01/05/2020 16:20:34
; FORMAT={-:-/ absolute / metric / decimal}
; #@! TF.CreationDate,2020-05-01T16:20:34+02:00
; #@! TF.GenerationSoftware,Kicad,Pcbnew,(5.1.5)-3
; #@! TF.FileFunction,Plated,1,2,PTH
FMAT,2
METRIC
T1C0.400
T2C1.000
T3C1.100
%
G90
G05
T1
X183.013Y-112.013
X185.4Y-112.0
X186.0Y-122.2
X187.8Y-110.8
X188.0Y-105.0
X188.0Y-106.0
X190.0Y-124.2
X190.825Y-114.2
X191.825Y-114.2
X192.4Y-124.2
X192.825Y-114.2
X194.0Y-116.8
X195.2Y-124.2
X195.4Y-100.4
X195.4Y-101.8
X196.8Y-102.0
X197.0Y-123.4
X199.0Y-115.2
X200.0Y-108.4
X200.0Y-109.4
X200.4Y-123.4
X203.3Y-107.5
X203.3Y-108.5
X203.8Y-100.4
X207.6Y-98.6
X208.6Y-112.4
X209.2Y-101.2
X210.8Y-99.2
X218.2Y-108.0
T2
X198.55Y-95.5
X201.09Y-95.5
X203.63Y-95.5
X206.17Y-95.5
X208.71Y-95.5
X211.25Y-95.5
X182.4Y-126.0
X184.94Y-126.0
X187.48Y-126.0
X190.02Y-126.0
X192.56Y-126.0
X195.1Y-126.0
X199.2Y-126.0
X201.74Y-126.0
X204.28Y-126.0
X206.82Y-126.0
X209.36Y-126.0
X211.9Y-126.0
X177.8Y-112.1
X177.8Y-114.64
X177.8Y-117.18
X177.8Y-119.72
X177.8Y-122.26
X177.8Y-124.8
X182.3Y-95.5
X184.84Y-95.5
X187.38Y-95.5
X189.92Y-95.5
X192.46Y-95.5
X195.0Y-95.5
X220.6Y-113.3
X220.6Y-115.84
X220.6Y-118.38
X220.6Y-120.92
X220.6Y-123.46
X220.6Y-126.0
X190.0Y-100.6
X177.8Y-95.6
X177.8Y-98.14
X177.8Y-100.68
X177.8Y-103.22
X177.8Y-105.76
X177.8Y-108.3
X220.6Y-95.3
X220.6Y-97.84
X220.6Y-100.38
X220.6Y-102.92
X220.6Y-105.46
X220.6Y-108.0
T3
X181.4Y-98.9
X181.4Y-105.4
X185.9Y-98.9
X185.9Y-105.4
T0
M30
